<svg  xmlns="http://www.w3.org/2000/svg" xmlns:xlink="http://www.w3.org/1999/xlink" width="1737" height="100" viewBox="0 0 1761 124"><path transform="translate(0 100)" d="M34.2,-24.6L3.8,-24.6L8.4,-56.8L38.7,-56.8L40.2,-67.3L37,-71.1L59.8,-71.1L57.7,-56.8L88.2,-56.8L83.6,-24.6L53.2,-24.6L49.6,0.9L30.6,0.9L34.2,-24.6ZM56.4,-47.3L54.5,-34.1L66,-34.1L67.8,-47.3L56.4,-47.3ZM35.5,-34.1L37.4,-47.3L26,-47.3L24.2,-34.1L35.5,-34.1Z"></path><path transform="translate(92 100)" d="M41.3,-61.6L42.1,-67.3L38.9,-71.1L61.7,-71.1L60.3,-61.6L91.6,-61.6L90.3,-52.1L79.9,-52.1L77.2,-33.1L77,-33.1L58.2,-20.4L83.7,0.9L57.4,0.9L43.6,-10.5L26.7,0.9L0.4,0.9L31.9,-20.4L16.7,-33.1L16.4,-33.1L19.1,-52.1L8.7,-52.1L10,-61.6L41.3,-61.6ZM59.6,-39.1L61.4,-52.1L37.6,-52.1L35.8,-39.2L46.5,-30.2L59.6,-39.1Z"></path><path transform="translate(184 100)" d="M48.8,-55.8L38.3,-31.5L41.5,-8.5L32.7,-8.5L31.6,-17.6L28.2,-8.4L19.7,-8.4L18.4,0.7L3,0.7L12.3,-65.5L9.4,-69.3L89,-69.3L80,-5Q79.6,-2.5 77.5,-0.85Q75.4,0.8 73,0.8L55.6,0.8L65.2,-8.3L65.2,-8.5L56.2,-8.5L55.1,-17.5L51.6,-8.4L41.5,-8.4L52.1,-32.2L48.9,-55.8L58.4,-55.8L59.2,-46L62.4,-55.8L71.6,-55.8L62,-31.7L65.3,-9L72.4,-59.8L26.9,-59.8L26.3,-55.8L35.3,-55.8L35.8,-46L39,-55.8L48.8,-55.8ZM20.2,-12.4L28.8,-32.2L26.2,-55.2L20.2,-12.4Z"></path><path transform="translate(276 100)" d="M35.4,-28.1L36,-32L58.1,-38.8L14.1,-38.8L15.5,-48.5L82,-48.5L80.4,-36.9L54.4,-28.1L86.7,-28.1L85.4,-18.4L53,-18.4L51.3,-5.9Q50.9,-3 48.65,-1.05Q46.4,0.9 43.5,0.9L23.8,0.9L32.7,-8.5L34.1,-18.4L1.8,-18.4L3.1,-28.1L35.4,-28.1ZM67.8,-55.9L29.8,-55.9L29.1,-50.5L8.2,-50.5L10.3,-65.4L40.6,-65.4L40.9,-67.4L37.8,-71.1L62,-71.1L61.1,-65.4L90.1,-65.4L88,-50.5L67.1,-50.5L67.8,-55.9Z"></path><path transform="translate(368 100)" d="M86.7,-37.4L69.5,-37.4L64.2,0.7L45.5,0.7L50.8,-37.4L32.5,-37.4L33.9,-47.4L52.2,-47.4L55.1,-67.5L51.8,-71L74.3,-71L70.9,-47.4L88.1,-47.4L86.7,-37.4ZM4.4,0.9L10.6,-42.6L3.8,-42.6L5.1,-52.1L29,-52.1L23.6,-13.5L32.5,-14.9L31,-4.6L4.4,0.9ZM25.8,-69.2L29.5,-55.9L14.3,-55.9L10.7,-69.2L25.8,-69.2Z"></path><path transform="translate(460 100)" d="M15.5,-52.7L12.2,-67.2L8.4,-71L26.9,-71L31,-52.7L53.5,-52.7L52.1,-43.1L33.2,-43.1L35.6,-32.7L50.3,-40.5L48.5,-28.1L37.9,-22.4L40.9,-9.4L46.5,-9.4L50,-12.2L48.1,0.8L28,0.8L24.3,-15.1L1.3,-2.9L3,-15.3L21.9,-25.4L17.8,-43.1L5,-43.1L6.4,-52.7L15.5,-52.7ZM90.6,-71L81.4,-5.8Q81,-3 78.75,-1.1Q76.5,0.8 73.7,0.8L57.9,0.8L66.7,-8.4L74.8,-66.6L72.7,-71L90.6,-71ZM71.3,-63.3L64.4,-14.5L51.2,-14.5L58.1,-63.3L71.3,-63.3ZM35.8,-60.3L34.2,-69L46.9,-69L48.5,-60.3L35.8,-60.3Z"></path><path transform="translate(552 100)" d=""></path><path transform="translate(552 100)" d="M18.9,-6L25.6,-53L4.5,-53L5.5,-62.6L66.9,-62.6L65,-53L44.8,-53L38.1,-6L18.9,-6Z"></path><path transform="translate(623 100)" d="M31.8,-68.4L29,-48.2L59.7,-48.2L53.9,-6L34.7,-6L39.5,-38.6L28,-38.6L23.2,-6L4,-6L12.6,-65.5L10.7,-68.4L31.8,-68.4Z"></path><path transform="translate(687 100)" d="M54.9,-23.3L24.2,-23.3L23.2,-15.6L50.1,-15.6L54.9,-19.4L52,-6L9.8,-6Q6.9,-6 5.45,-7.9Q4,-9.8 4,-12.7L8.8,-48.2L58.7,-48.2L54.9,-23.3ZM27,-38.6L26.1,-32.9L37.6,-32.9L38.6,-38.6L27,-38.6Z"></path><path transform="translate(750 100)" d=""></path><path transform="translate(810 100)" d="M70.7,-62.6L66.9,-31.9Q66.1,-29 63.75,-27.1Q61.4,-25.2 59.2,-25.2L25.6,-25.2L22.7,-6L4.5,-6L11.2,-59.8L8.3,-62.6L70.7,-62.6ZM29.5,-53L27.5,-34.8L47.7,-34.8L50.6,-53L29.5,-53Z"></path><path transform="translate(885 100)" d="M27,-48.2L25.1,-34.8L38.6,-48.2L57.8,-48.2L25.1,-19.4L23.2,-6L4,-6L9.6,-45.4L7.6,-48.2L27,-48.2Z"></path><path transform="translate(941 100)" d="M52,-48.2Q54.9,-48.2 56.35,-45.85Q57.8,-43.5 57.8,-40.6L53,-6L9.8,-6Q6.9,-6 5.45,-7.9Q4,-9.8 4,-12.7L8.8,-48.2L52,-48.2ZM27,-38.6L23.2,-15.6L34.7,-15.6L38.6,-38.6L27,-38.6Z"></path><path transform="translate(1003 100)" d="M31.5,-52L13.3,-52L15.2,-62.6L33.4,-62.6L31.5,-52ZM9.4,-48.2L31.5,-48.2L23.8,8.3Q23.4,11.2 21.25,13.1Q19.1,15 16.2,15L-4,15L4.6,5.4L12.3,-45.3L9.4,-48.2Z"></path><path transform="translate(1040 100)" d="M54.9,-23.3L24.2,-23.3L23.2,-15.6L50.1,-15.6L54.9,-19.4L52,-6L9.8,-6Q6.9,-6 5.45,-7.9Q4,-9.8 4,-12.7L8.8,-48.2L58.7,-48.2L54.9,-23.3ZM27,-38.6L26.1,-32.9L37.6,-32.9L38.6,-38.6L27,-38.6Z"></path><path transform="translate(1103 100)" d="M58.7,-38.6L28,-38.6L24.2,-15.6L51,-15.6L55.8,-19.4L53.9,-6L4,-6L10.7,-48.2L59.7,-48.2L58.7,-38.6Z"></path><path transform="translate(1167 100)" d="M13.6,-54L11.7,-56.9L32.8,-56.9L31.5,-48.2L43.4,-48.2L41.4,-38.6L30.3,-38.6L27,-15.6L36.6,-15.6L34.7,-6L13.6,-6Q10.7,-6 8.9,-7.9Q7.1,-9.8 7.8,-12.7L11.7,-38.6L4,-38.6L5,-48.2L12.8,-48.2L13.6,-54Z"></path><path transform="translate(1212 100)" d=""></path><path transform="translate(1272 100)" d="M65.9,-62.6L65,-53L30.4,-53L28.5,-36.7L60.2,-36.7L59.2,-27.1L26.6,-27.1L23.7,-6L4.5,-6L12.2,-58.8L9.3,-62.6L65.9,-62.6Z"></path><path transform="translate(1342 100)" d="M52,-48.2Q54.9,-48.2 56.35,-45.85Q57.8,-43.5 57.8,-40.6L53,-6L9.8,-6Q6.9,-6 5.45,-7.9Q4,-9.8 4,-12.7L8.8,-48.2L52,-48.2ZM27,-38.6L23.2,-15.6L34.7,-15.6L38.6,-38.6L27,-38.6Z"></path><path transform="translate(1404 100)" d="M27,-48.2L25.1,-34.8L38.6,-48.2L57.8,-48.2L25.1,-19.4L23.2,-6L4,-6L9.6,-45.4L7.6,-48.2L27,-48.2Z"></path><path transform="translate(1460 100)" d=""></path><path transform="translate(1520 100)" d="M37.6,-60.7L53,-60.7L55.8,-28.1L69.3,-62.6L85.6,-62.6L62.6,-6L45.3,-6L41.4,-33.8L29.9,-6L12.6,-6L5.9,-60.7L4,-62.6L22.2,-62.6L25.1,-28.1L37.6,-60.7Z"></path><path transform="translate(1610 100)" d="M54.9,-23.3L24.2,-23.3L23.2,-15.6L50.1,-15.6L54.9,-19.4L52,-6L9.8,-6Q6.9,-6 5.45,-7.9Q4,-9.8 4,-12.7L8.8,-48.2L58.7,-48.2L54.9,-23.3ZM27,-38.6L26.1,-32.9L37.6,-32.9L38.6,-38.6L27,-38.6Z"></path><path transform="translate(1673 100)" d="M31.8,-68.4L29,-48.2L59.7,-48.2L54.9,-12.7Q54.1,-9.8 52.1,-7.9Q50.1,-6 47.2,-6L4,-6L12.6,-65.5L10.7,-68.4L31.8,-68.4ZM28,-38.6L24.7,-15.6L36.1,-15.6L39.5,-38.6L28,-38.6Z"></path></svg>