<svg  xmlns="http://www.w3.org/2000/svg" xmlns:xlink="http://www.w3.org/1999/xlink" width="1607" height="100" viewBox="0 0 1631 124"><path transform="translate(0 100)" d="M56.1,-34.2L56.1,-55.7L78.7,-55.7L78.7,-34.2L56.1,-34.2ZM21,-34.2L21,-55.7L43.5,-55.7L43.5,-34.2L21,-34.2ZM56.1,-67.4L56.1,-84.7L43.5,-84.7L43.5,-67.4L9,-67.4L9,-17L21,-17L21,-22.5L43.5,-22.5L43.5,8.7L56.1,8.7L56.1,-22.5L78.7,-22.5L78.7,-17.5L91.2,-17.5L91.2,-67.4L56.1,-67.4Z"></path><path transform="translate(100 100)" d="M67,-56.3C63.1,-45.3 57.6,-36.2 50.7,-28.6C43,-36.5 37,-45.8 32.7,-56.3L67,-56.3ZM95.7,-56.3L95.7,-67.9L52.2,-67.9L60.8,-70.6C59.6,-74.7 56.6,-81.1 54,-85.7L41.3,-82C43.6,-77.6 45.8,-72 46.9,-67.9L4.7,-67.9L4.7,-56.3L20.4,-56.3C25.8,-42.2 32.7,-30.2 41.7,-20.3C31.3,-12.2 18.4,-6.5 2.8,-2.6C5.2,0.1 8.7,5.7 10,8.5C26.1,3.9 39.5,-2.7 50.5,-11.7C61,-2.9 73.9,3.7 89.6,7.9C91.4,4.6 94.9,-0.6 97.6,-3.2C82.7,-6.7 70.1,-12.5 59.8,-20.5C68.5,-30.2 75.3,-41.9 80.4,-56.3L95.7,-56.3Z"></path><path transform="translate(200 100)" d="M80.2,-21C78.1,-25.5 74.8,-30.9 70.9,-36.3C73.1,-44.4 74.7,-53.1 75.8,-62.4L65.3,-63.4C64.7,-57.7 63.8,-52.2 62.7,-46.9C59.9,-50.3 57,-53.5 54.2,-56.4L47,-49.9C51.3,-45.3 55.6,-40 59.5,-34.7C56,-23.9 51.2,-15 44.3,-8.5C46.7,-7.2 51.5,-3.9 53.5,-2.2C58.9,-8 63.3,-15.4 66.7,-23.9C69,-20.1 71,-16.6 72.4,-13.5L80.2,-21ZM19.8,-48.9C23.8,-44.5 28,-39.3 32.1,-34.3C29.1,-25.3 25.1,-17.5 19.8,-11.7L19.8,-48.9ZM92.3,-79.2L7.9,-79.2L7.9,8.5L19.8,8.5L19.8,-8.1C22.4,-6.6 25.4,-4.4 26.8,-3.1C32.1,-8.8 36.2,-16.1 39.5,-24.5C41.8,-21.3 43.8,-18.4 45.2,-16L52.4,-24.3C50.1,-27.6 47,-31.9 43.5,-36.3C45.6,-44.3 47.3,-53.1 48.5,-62.5L37.9,-63.6C37.2,-57.6 36.4,-51.7 35.2,-46.2C32,-49.9 28.7,-53.6 25.6,-56.9L19.8,-50.7L19.8,-67.9L80.4,-67.9L80.4,-5.9C80.4,-4 79.6,-3.3 77.5,-3.2C75.5,-3.2 68.2,-3.1 61.9,-3.6C63.7,-0.4 65.7,5.1 66.3,8.4C75.8,8.5 82.2,8.2 86.4,6.2C90.8,4.3 92.3,1 92.3,-5.7L92.3,-79.2Z"></path><path transform="translate(300 100)" d="M18.7,-64L80.6,-64L80.6,-52.3L92.9,-52.3L92.9,-75.2L58.5,-75.2C57.2,-78.4 54.8,-82.4 52.4,-85.4L40.5,-81.8C41.9,-79.9 43.2,-77.5 44.4,-75.2L7,-75.2L7,-52.3L18.7,-52.3L18.7,-64ZM93.6,-31.3L56.3,-31.3L56.3,-33C64.7,-37.8 72.6,-44.2 78.4,-50.3L70.5,-56.5L67.8,-55.9L23.6,-55.9L23.6,-44.8L55.8,-44.8C52,-41.7 47.8,-38.7 43.6,-36.6L43.6,-31.3L6.5,-31.3L6.5,-20L43.6,-20L43.6,-5.2C43.6,-3.8 43,-3.4 41,-3.4C39,-3.4 31.5,-3.4 25.3,-3.6C27.4,-0.4 29.7,4.9 30.5,8.5C38.7,8.5 45.1,8.4 49.9,6.5C54.8,4.7 56.3,1.5 56.3,-4.9L56.3,-20L93.6,-20L93.6,-31.3Z"></path><path transform="translate(400 100)" d="M36.1,-69C32.6,-73.2 24.8,-79.4 19.3,-83.7L11.8,-76.1C17.4,-71.4 24.7,-64.7 28.1,-60.3L36.1,-69ZM30.7,-15.5L30.7,-54L4,-54L4,-42.2L18.6,-42.2L18.6,-12.1C18.6,-7.6 15.4,-4.3 13.2,-2.8C15.1,-0.2 18,5.2 19,8.3C20.9,5.8 24.6,2.9 44.7,-11.6C43.4,-14 41.6,-19.1 40.9,-22.5L30.7,-15.5ZM96.5,-53.4L73.5,-53.4L73.5,-84.3L60.7,-84.3L60.7,-53.4L36.7,-53.4L36.7,-41L60.7,-41L60.7,8.7L73.5,8.7L73.5,-41L96.5,-41L96.5,-53.4Z"></path><path transform="translate(500 100)" d="M51.8,-70.5C48.9,-74.5 42.6,-80.1 37.5,-84L29.7,-77.5C34.5,-73.4 40.7,-67.3 43.4,-63.4L51.8,-70.5ZM43.2,-47.7C40.4,-41.1 36.8,-34.8 32.7,-29C31.3,-34.9 30.1,-41.4 29.2,-48.5L58.7,-51.8L57.6,-63L28,-59.7C27.4,-67.7 27.1,-76.2 27.2,-84.6L15,-84.6C15.1,-75.8 15.4,-67 16.2,-58.4L2.8,-57L3.9,-45.7L17.3,-47.2C18.7,-36.5 20.7,-26.5 23.2,-18C17.2,-12 10.2,-6.9 2.8,-2.9C5.3,-0.7 9.5,3.9 11.1,6.4C17,2.9 22.5,-1.5 27.8,-6.5C32.3,2.4 37.9,7.9 44.9,7.9C53.9,7.9 57.7,3.6 59.6,-13.8C56.4,-14.9 52.3,-17.7 49.8,-20.3C49.2,-8.6 48.1,-4 45.8,-4C42.7,-4 39.5,-8.4 36.6,-15.8C43.8,-24.2 49.8,-33.8 54.4,-44.3L43.2,-47.7ZM73.4,-74.1L62,-74.1L62,-19.1L73.4,-19.1L73.4,-74.1ZM81,-83.7L81,-5.2C81,-3.5 80.3,-3 78.5,-2.9C76.9,-2.9 71.1,-2.9 65.6,-3.1C67.2,0.2 68.9,5.4 69.3,8.7C77.8,8.7 83.7,8.3 87.5,6.4C91.3,4.5 92.6,1.4 92.6,-5.2L92.6,-83.7L81,-83.7Z"></path><path transform="translate(600 100)" d=""></path><path transform="translate(623 100)" d="M23.8,-0L38.6,-0L38.6,-61.7L59.6,-61.7L59.6,-74L3,-74L3,-61.7L23.8,-61.7L23.8,-0Z"></path><path transform="translate(685 100)" d="M7.9,-0L22.5,-0L22.5,-38.5C26.7,-42.6 29.6,-44.8 34.2,-44.8C39.7,-44.8 42.1,-41.7 42.1,-33.1L42.1,-0L56.8,-0L56.8,-34.9C56.8,-49 51.6,-57.4 39.5,-57.4C31.9,-57.4 26.4,-53.4 21.9,-49.2L22.5,-59.7L22.5,-79.8L7.9,-79.8L7.9,-0Z"></path><path transform="translate(749 100)" d="M32.2,1.4C39.2,1.4 46.3,-1 51.8,-4.8L46.8,-13.8C42.8,-11.3 38.8,-9.9 34.2,-9.9C25.9,-9.9 19.9,-14.7 18.7,-23.9L53.2,-23.9C53.6,-25.2 53.9,-27.9 53.9,-30.6C53.9,-46.1 45.9,-57.4 30.5,-57.4C17.1,-57.4 4.4,-46.1 4.4,-27.9C4.4,-9.5 16.6,1.4 32.2,1.4ZM18.5,-33.6C19.6,-41.8 24.8,-46 30.7,-46C37.9,-46 41.3,-41.2 41.3,-33.6L18.5,-33.6Z"></path><path transform="translate(807 100)" d=""></path><path transform="translate(830 100)" d="M9.1,-0L23.9,-0L23.9,-26.3L33.8,-26.3C49.7,-26.3 62.4,-33.9 62.4,-50.8C62.4,-68.3 49.8,-74 33.4,-74L9.1,-74L9.1,-0ZM23.9,-38L23.9,-62.3L32.3,-62.3C42.5,-62.3 47.9,-59.4 47.9,-50.8C47.9,-42.3 43,-38 32.8,-38L23.9,-38Z"></path><path transform="translate(897 100)" d="M7.9,-0L22.5,-0L22.5,-33.4C25.7,-41.5 31,-44.4 35.4,-44.4C37.7,-44.4 39.3,-44.1 41.2,-43.5L43.8,-56.2C42.1,-56.9 40.3,-57.4 37.2,-57.4C31.4,-57.4 25.4,-53.4 21.3,-46.1L20.9,-46.1L19.9,-56L7.9,-56L7.9,-0Z"></path><path transform="translate(940 100)" d="M31.3,1.4C45.3,1.4 58.2,-9.4 58.2,-27.9C58.2,-46.6 45.3,-57.4 31.3,-57.4C17.3,-57.4 4.4,-46.6 4.4,-27.9C4.4,-9.4 17.3,1.4 31.3,1.4ZM31.3,-10.6C23.7,-10.6 19.4,-17.4 19.4,-27.9C19.4,-38.5 23.7,-45.4 31.3,-45.4C38.9,-45.4 43.2,-38.5 43.2,-27.9C43.2,-17.4 38.9,-10.6 31.3,-10.6Z"></path><path transform="translate(1003 100)" d="M4,22.9C18.1,22.9 22.7,13.4 22.7,1.4L22.7,-56L8,-56L8,1.8C8,8.1 6.6,11.3 1.8,11.3C0.2,11.3 -1.3,11 -2.8,10.5L-5.4,21.4C-3.2,22.2 -0.3,22.9 4,22.9ZM15.4,-65C20.4,-65 24.2,-68.4 24.2,-73C24.2,-77.8 20.4,-81 15.4,-81C10.3,-81 6.6,-77.8 6.6,-73C6.6,-68.4 10.3,-65 15.4,-65Z"></path><path transform="translate(1033 100)" d="M32.2,1.4C39.2,1.4 46.3,-1 51.8,-4.8L46.8,-13.8C42.8,-11.3 38.8,-9.9 34.2,-9.9C25.9,-9.9 19.9,-14.7 18.7,-23.9L53.2,-23.9C53.6,-25.2 53.9,-27.9 53.9,-30.6C53.9,-46.1 45.9,-57.4 30.5,-57.4C17.1,-57.4 4.4,-46.1 4.4,-27.9C4.4,-9.5 16.6,1.4 32.2,1.4ZM18.5,-33.6C19.6,-41.8 24.8,-46 30.7,-46C37.9,-46 41.3,-41.2 41.3,-33.6L18.5,-33.6Z"></path><path transform="translate(1091 100)" d="M31.7,1.4C37.9,1.4 44.7,-0.7 50,-5.4L44.2,-15.1C41.1,-12.5 37.3,-10.6 33.3,-10.6C25.2,-10.6 19.4,-17.4 19.4,-27.9C19.4,-38.5 25.2,-45.4 33.7,-45.4C36.9,-45.4 39.5,-44.1 42.3,-41.7L49.3,-51.2C45.2,-54.7 39.9,-57.4 33,-57.4C17.8,-57.4 4.4,-46.6 4.4,-27.9C4.4,-9.4 16.2,1.4 31.7,1.4Z"></path><path transform="translate(1143 100)" d="M28.4,1.4C33.3,1.4 37.2,0.3 40.2,-0.7L37.8,-11.4C36.3,-10.8 34.1,-10.2 32.3,-10.2C27.3,-10.2 24.7,-13.2 24.7,-19.6L24.7,-44.4L38.5,-44.4L38.5,-56L24.7,-56L24.7,-71L12.4,-71L10.7,-56L2.1,-55.3L2.1,-44.4L10,-44.4L10,-19.6C10,-7 15.1,1.4 28.4,1.4Z"></path><path transform="translate(1185 100)" d=""></path><path transform="translate(1208 100)" d="M9.1,-0L23.9,-0L23.9,-30L50.2,-30L50.2,-42.4L23.9,-42.4L23.9,-61.7L54.7,-61.7L54.7,-74L9.1,-74L9.1,-0Z"></path><path transform="translate(1264 100)" d="M31.3,1.4C45.3,1.4 58.2,-9.4 58.2,-27.9C58.2,-46.6 45.3,-57.4 31.3,-57.4C17.3,-57.4 4.4,-46.6 4.4,-27.9C4.4,-9.4 17.3,1.4 31.3,1.4ZM31.3,-10.6C23.7,-10.6 19.4,-17.4 19.4,-27.9C19.4,-38.5 23.7,-45.4 31.3,-45.4C38.9,-45.4 43.2,-38.5 43.2,-27.9C43.2,-17.4 38.9,-10.6 31.3,-10.6Z"></path><path transform="translate(1327 100)" d="M7.9,-0L22.5,-0L22.5,-33.4C25.7,-41.5 31,-44.4 35.4,-44.4C37.7,-44.4 39.3,-44.1 41.2,-43.5L43.8,-56.2C42.1,-56.9 40.3,-57.4 37.2,-57.4C31.4,-57.4 25.4,-53.4 21.3,-46.1L20.9,-46.1L19.9,-56L7.9,-56L7.9,-0Z"></path><path transform="translate(1371 100)" d=""></path><path transform="translate(1394 100)" d="M16.1,-0L34.2,-0L42.3,-36.6C43.5,-42.4 44.5,-48.1 45.5,-53.7L45.9,-53.7C46.8,-48.1 47.9,-42.4 49.1,-36.6L57.4,-0L75.8,-0L89.5,-74L75.4,-74L69.6,-37.9C68.5,-30.2 67.4,-22.3 66.3,-14.3L65.8,-14.3C64.2,-22.3 62.7,-30.3 61.1,-37.9L52.5,-74L39.9,-74L31.3,-37.9C29.7,-30.2 28.1,-22.2 26.6,-14.3L26.2,-14.3C25.1,-22.2 23.9,-30.1 22.8,-37.9L16.9,-74L1.8,-74L16.1,-0Z"></path><path transform="translate(1485 100)" d="M32.2,1.4C39.2,1.4 46.3,-1 51.8,-4.8L46.8,-13.8C42.8,-11.3 38.8,-9.9 34.2,-9.9C25.9,-9.9 19.9,-14.7 18.7,-23.9L53.2,-23.9C53.6,-25.2 53.9,-27.9 53.9,-30.6C53.9,-46.1 45.9,-57.4 30.5,-57.4C17.1,-57.4 4.4,-46.1 4.4,-27.9C4.4,-9.5 16.6,1.4 32.2,1.4ZM18.5,-33.6C19.6,-41.8 24.8,-46 30.7,-46C37.9,-46 41.3,-41.2 41.3,-33.6L18.5,-33.6Z"></path><path transform="translate(1543 100)" d="M36,1.4C48.3,1.4 59.8,-9.7 59.8,-29C59.8,-46.1 51.5,-57.4 37.7,-57.4C32.2,-57.4 26.6,-54.7 22.2,-50.7L22.5,-59.7L22.5,-79.8L7.9,-79.8L7.9,-0L19.4,-0L20.7,-5.9L21,-5.9C25.6,-1.2 31,1.4 36,1.4ZM32.7,-10.7C29.7,-10.7 26,-11.8 22.5,-14.9L22.5,-39.5C26.4,-43.4 29.8,-45.3 33.6,-45.3C41.3,-45.3 44.7,-39.4 44.7,-28.7C44.7,-16.5 39.5,-10.7 32.7,-10.7Z"></path></svg>