<svg  xmlns="http://www.w3.org/2000/svg" xmlns:xlink="http://www.w3.org/1999/xlink" width="1636" height="100" viewBox="0 0 1660 124"><path transform="translate(0 100)" d="M57.5,-35.4L57.5,-54.1L76.8,-54.1L76.8,-35.4L57.5,-35.4ZM22.9,-35.4L22.9,-54.1L42.1,-54.1L42.1,-35.4L22.9,-35.4ZM57.5,-68.4L57.5,-85.5L42.1,-85.5L42.1,-68.4L8.3,-68.4L8.3,-15.9L22.9,-15.9L22.9,-21.1L42.1,-21.1L42.1,9.5L57.5,9.5L57.5,-21.1L76.8,-21.1L76.8,-16.4L92.1,-16.4L92.1,-68.4L57.5,-68.4Z"></path><path transform="translate(100 100)" d="M64.9,-54.9C61.5,-45.3 56.8,-37.2 50.9,-30.4C44.2,-37.5 38.9,-45.7 35,-54.9L64.9,-54.9ZM96.4,-54.9L96.4,-69.1L54.4,-69.1L62.5,-71.6C61.5,-75.8 58.7,-82.1 56.2,-86.8L40.6,-82.2C42.5,-78.2 44.3,-73.1 45.3,-69.1L4.1,-69.1L4.1,-54.9L19.9,-54.9C25.1,-41.4 31.5,-29.9 39.8,-20.3C29.7,-12.9 17.2,-7.7 1.9,-4.3C4.7,-0.9 9.1,5.9 10.7,9.4C26.5,5 39.7,-1.3 50.6,-9.9C60.9,-1.6 73.4,4.6 88.8,8.6C91,4.6 95.3,-1.8 98.6,-5C84.1,-8.2 72,-13.5 62,-20.7C70.2,-30 76.6,-41.3 81.3,-54.9L96.4,-54.9Z"></path><path transform="translate(200 100)" d="M63.3,-63.5C62.9,-58.6 62.3,-53.8 61.5,-49.2C59.3,-51.6 57,-53.9 54.7,-56L47.5,-48.9C48.2,-53.2 48.8,-57.7 49.3,-62.3L36.5,-63.6C36,-58.2 35.4,-53.1 34.6,-48.1C31.8,-51.1 29,-53.9 26.4,-56.6L21.6,-51.2L21.6,-66.5L78.5,-66.5L78.5,-27C76.7,-30 74.4,-33.4 71.9,-36.8C73.8,-44.6 75.2,-53.1 76.2,-62.2L63.3,-63.5ZM21.6,-44.3C24.7,-40.9 28,-37.2 31.1,-33.5C28.8,-25.9 25.7,-19.2 21.6,-13.9L21.6,-44.3ZM93.1,-80.2L7,-80.2L7,9.3L21.6,9.3L21.6,-7.1C24.4,-5.3 27.4,-3.2 28.8,-1.9C33.6,-7.3 37.4,-14.1 40.4,-22C42.2,-19.7 43.7,-17.6 44.9,-15.8L53.4,-26.2C51.2,-29.1 48.3,-32.7 45,-36.5C45.8,-39.9 46.5,-43.4 47.1,-47C50.9,-43.1 54.7,-38.8 58.1,-34.3C55,-23.7 50.3,-14.9 43.6,-8.6C46.7,-6.9 52.5,-2.9 54.8,-0.9C59.9,-6.4 63.9,-13.3 67.1,-21.4C68.8,-18.7 70.2,-16 71.2,-13.7L78.5,-21L78.5,-7.7C78.5,-5.8 77.7,-5.1 75.6,-5C73.4,-5 65.6,-4.9 59.5,-5.4C61.6,-1.6 64.2,5.2 64.9,9.3C74.7,9.3 81.6,9 86.5,6.6C91.4,4.3 93.1,0.3 93.1,-7.5L93.1,-80.2Z"></path><path transform="translate(300 100)" d="M20.3,-62.9L78.7,-62.9L78.7,-52.2L93.8,-52.2L93.8,-76.6L59.7,-76.6C58.4,-79.7 56.2,-83.5 54,-86.3L39.3,-82C40.4,-80.4 41.5,-78.5 42.4,-76.6L6,-76.6L6,-52.2L20.3,-52.2L20.3,-62.9ZM94.2,-32L57.6,-32L57.6,-32.5C65.9,-37.5 73.2,-43.8 79,-49.7L69.3,-57.3L65.9,-56.6L23.5,-56.6L23.5,-43.1L51.4,-43.1C48.4,-40.7 45.2,-38.5 42,-36.8L42,-32L5.9,-32L5.9,-18.2L42,-18.2L42,-7.1C42,-5.7 41.4,-5.3 39.3,-5.3C37.2,-5.3 29,-5.3 23.3,-5.6C25.7,-1.7 28.6,4.9 29.5,9.3C37.7,9.3 44.7,9.1 50.2,6.9C55.9,4.7 57.6,0.8 57.6,-6.6L57.6,-18.2L94.2,-18.2L94.2,-32Z"></path><path transform="translate(400 100)" d="M36.9,-70.2C33.2,-74.5 25.1,-80.7 19.5,-84.9L10.3,-75.5C16,-70.8 23.7,-64.1 27.1,-59.7L36.9,-70.2ZM32.1,-18.6L32.1,-55L3.4,-55L3.4,-40.6L17.2,-40.6L17.2,-13.6C17.2,-9 14,-5.4 11.4,-3.7C13.8,-0.6 17.3,6.1 18.4,9.9C20.5,7.2 24.6,3.9 45.6,-11.5C44.1,-14.5 41.9,-20.8 41.1,-25L32.1,-18.6ZM97.2,-54.9L75.4,-54.9L75.4,-85L59.7,-85L59.7,-54.9L36.4,-54.9L36.4,-39.7L59.7,-39.7L59.7,9.5L75.4,9.5L75.4,-39.7L97.2,-39.7L97.2,-54.9Z"></path><path transform="translate(500 100)" d="M52.5,-72.1C49.6,-76.1 43.3,-81.7 38.4,-85.5L28.8,-77.7C33.6,-73.5 39.7,-67.4 42.2,-63.4L52.5,-72.1ZM41.3,-47.8C38.9,-42.1 35.9,-36.6 32.3,-31.5C31.3,-36.4 30.4,-41.9 29.7,-47.7L58.3,-50.8L57,-64.5L28.4,-61.4C27.9,-69.3 27.7,-77.4 27.9,-85.4L13,-85.4C13,-76.9 13.3,-68.3 13.9,-59.9L2,-58.6L3.3,-44.8L15.2,-46.1C16.4,-35.8 18.2,-26.1 20.7,-17.8C15,-12.4 8.7,-7.8 2,-4.2C4.9,-1.5 10,4.2 12.1,7.2C17,4.1 21.8,0.4 26.4,-3.8C30.7,3.9 36.2,8.5 43.2,8.5C53.3,8.5 57.8,4.3 60,-14.5C56.2,-15.9 51.2,-19.2 48.1,-22.5C47.5,-10.7 46.4,-6 44.3,-6C41.7,-6 39.2,-9.3 37,-14.9C44.2,-23.4 50.3,-33.1 55,-43.6L41.3,-47.8ZM74.4,-75L60.5,-75L60.5,-19.6L74.4,-19.6L74.4,-75ZM79.5,-84.5L79.5,-6.8C79.5,-5.1 78.9,-4.6 77.1,-4.6C75.3,-4.6 69.6,-4.6 64.5,-4.8C66.4,-0.8 68.5,5.6 69,9.6C77.5,9.6 83.8,9.1 88.1,6.8C92.4,4.5 93.7,0.7 93.7,-6.8L93.7,-84.5L79.5,-84.5Z"></path><path transform="translate(600 100)" d=""></path><path transform="translate(623 100)" d="M23,-0L40.9,-0L40.9,-59.6L61.1,-59.6L61.1,-74.4L2.9,-74.4L2.9,-59.6L23,-59.6L23,-0Z"></path><path transform="translate(687 100)" d="M7.2,-0L24.9,-0L24.9,-38C28.4,-41.3 30.8,-43.1 34.8,-43.1C39.3,-43.1 41.4,-40.8 41.4,-33L41.4,-0L59.2,-0L59.2,-35.2C59.2,-49.4 53.9,-58.3 41.5,-58.3C33.8,-58.3 28.2,-54.4 24.1,-50.6L24.9,-60.7L24.9,-79.9L7.2,-79.9L7.2,-0Z"></path><path transform="translate(753 100)" d="M32.9,1.4C39.6,1.4 47.4,-0.9 53.3,-5.1L47.4,-15.8C43.3,-13.4 39.5,-12.2 35.4,-12.2C28.2,-12.2 22.8,-15.4 21.2,-23.2L54.6,-23.2C55,-24.5 55.4,-27.7 55.4,-30.8C55.4,-46.4 47.4,-58.3 31,-58.3C17.2,-58.3 4,-46.9 4,-28.4C4,-9.6 16.6,1.4 32.9,1.4ZM20.9,-34.8C22.1,-41.6 26.4,-44.7 31.3,-44.7C37.8,-44.7 40.3,-40.5 40.3,-34.8L20.9,-34.8Z"></path><path transform="translate(813 100)" d=""></path><path transform="translate(836 100)" d="M8.6,-0L26.5,-0L26.5,-24.7L35.2,-24.7C50.9,-24.7 64.6,-32.5 64.6,-50.2C64.6,-68.6 51.1,-74.4 34.7,-74.4L8.6,-74.4L8.6,-0ZM26.5,-38.8L26.5,-60.3L33.8,-60.3C42.4,-60.3 47.2,-57.7 47.2,-50.2C47.2,-42.9 43,-38.8 34.3,-38.8L26.5,-38.8Z"></path><path transform="translate(905 100)" d="M7.2,-0L24.9,-0L24.9,-32.5C27.9,-40 33,-42.7 37.2,-42.7C39.7,-42.7 41.4,-42.3 43.4,-41.8L46.4,-57.1C44.8,-57.8 42.9,-58.3 39.5,-58.3C33.8,-58.3 27.5,-54.6 23.3,-47L22.9,-47L21.7,-56.9L7.2,-56.9L7.2,-0Z"></path><path transform="translate(950 100)" d="M31.9,1.4C46.3,1.4 59.7,-9.6 59.7,-28.4C59.7,-47.3 46.3,-58.3 31.9,-58.3C17.4,-58.3 4,-47.3 4,-28.4C4,-9.6 17.4,1.4 31.9,1.4ZM31.9,-13C25.2,-13 22.2,-19 22.2,-28.4C22.2,-37.9 25.2,-43.9 31.9,-43.9C38.5,-43.9 41.5,-37.9 41.5,-28.4C41.5,-19 38.5,-13 31.9,-13Z"></path><path transform="translate(1014 100)" d="M4.2,22.1C20.2,22.1 25.2,11.3 25.2,-1.3L25.2,-56.9L7.3,-56.9L7.3,-0.7C7.3,5.5 5.8,8.2 1.4,8.2C0,8.2 -1.4,7.9 -2.9,7.4L-6,20.5C-3.6,21.4 -0.7,22.1 4.2,22.1ZM16.3,-64.8C22.1,-64.8 26.4,-68.6 26.4,-73.9C26.4,-79.3 22.1,-83.1 16.3,-83.1C10.3,-83.1 6,-79.3 6,-73.9C6,-68.6 10.3,-64.8 16.3,-64.8Z"></path><path transform="translate(1046 100)" d="M32.9,1.4C39.6,1.4 47.4,-0.9 53.3,-5.1L47.4,-15.8C43.3,-13.4 39.5,-12.2 35.4,-12.2C28.2,-12.2 22.8,-15.4 21.2,-23.2L54.6,-23.2C55,-24.5 55.4,-27.7 55.4,-30.8C55.4,-46.4 47.4,-58.3 31,-58.3C17.2,-58.3 4,-46.9 4,-28.4C4,-9.6 16.6,1.4 32.9,1.4ZM20.9,-34.8C22.1,-41.6 26.4,-44.7 31.3,-44.7C37.8,-44.7 40.3,-40.5 40.3,-34.8L20.9,-34.8Z"></path><path transform="translate(1106 100)" d="M32.3,1.4C38.3,1.4 45.5,-0.4 51,-5.3L44.2,-17C41.3,-14.7 37.9,-13 34.3,-13C27.3,-13 22.2,-19 22.2,-28.4C22.2,-37.9 27.1,-43.9 34.9,-43.9C37.4,-43.9 39.6,-43 42.2,-40.8L50.5,-52.2C46.2,-55.9 40.8,-58.3 33.9,-58.3C18,-58.3 4,-47.3 4,-28.4C4,-9.6 16.3,1.4 32.3,1.4Z"></path><path transform="translate(1159 100)" d="M29.6,1.4C35.4,1.4 39.5,0.2 42.5,-0.7L39.7,-13.5C38.3,-13.1 36.3,-12.5 34.5,-12.5C30.3,-12.5 27.3,-15 27.3,-21.3L27.3,-43L40.7,-43L40.7,-56.9L27.3,-56.9L27.3,-71.9L12.5,-71.9L10.5,-56.9L1.8,-56.2L1.8,-43L9.5,-43L9.5,-21.1C9.5,-7.6 15.3,1.4 29.6,1.4Z"></path><path transform="translate(1203 100)" d=""></path><path transform="translate(1226 100)" d="M8.6,-0L26.5,-0L26.5,-28.4L51.9,-28.4L51.9,-43.3L26.5,-43.3L26.5,-59.6L56.1,-59.6L56.1,-74.4L8.6,-74.4L8.6,-0Z"></path><path transform="translate(1284 100)" d="M31.9,1.4C46.3,1.4 59.7,-9.6 59.7,-28.4C59.7,-47.3 46.3,-58.3 31.9,-58.3C17.4,-58.3 4,-47.3 4,-28.4C4,-9.6 17.4,1.4 31.9,1.4ZM31.9,-13C25.2,-13 22.2,-19 22.2,-28.4C22.2,-37.9 25.2,-43.9 31.9,-43.9C38.5,-43.9 41.5,-37.9 41.5,-28.4C41.5,-19 38.5,-13 31.9,-13Z"></path><path transform="translate(1348 100)" d="M7.2,-0L24.9,-0L24.9,-32.5C27.9,-40 33,-42.7 37.2,-42.7C39.7,-42.7 41.4,-42.3 43.4,-41.8L46.4,-57.1C44.8,-57.8 42.9,-58.3 39.5,-58.3C33.8,-58.3 27.5,-54.6 23.3,-47L22.9,-47L21.7,-56.9L7.2,-56.9L7.2,-0Z"></path><path transform="translate(1394 100)" d=""></path><path transform="translate(1417 100)" d="M15,-0L37.1,-0L43.6,-32.4C44.7,-38.1 45.6,-44.1 46.5,-49.7L47,-49.7C47.7,-44.1 48.7,-38.1 49.9,-32.4L56.6,-0L79.1,-0L92,-74.4L75,-74.4L70.2,-40.5C69.3,-32.8 68.3,-24.9 67.4,-16.9L66.9,-16.9C65.4,-24.9 64.1,-32.9 62.6,-40.5L54.8,-74.4L39.8,-74.4L32.2,-40.5C30.7,-32.8 29.2,-24.8 27.8,-16.9L27.4,-16.9L24.4,-40.5L19.7,-74.4L1.4,-74.4L15,-0Z"></path><path transform="translate(1510 100)" d="M32.9,1.4C39.6,1.4 47.4,-0.9 53.3,-5.1L47.4,-15.8C43.3,-13.4 39.5,-12.2 35.4,-12.2C28.2,-12.2 22.8,-15.4 21.2,-23.2L54.6,-23.2C55,-24.5 55.4,-27.7 55.4,-30.8C55.4,-46.4 47.4,-58.3 31,-58.3C17.2,-58.3 4,-46.9 4,-28.4C4,-9.6 16.6,1.4 32.9,1.4ZM20.9,-34.8C22.1,-41.6 26.4,-44.7 31.3,-44.7C37.8,-44.7 40.3,-40.5 40.3,-34.8L20.9,-34.8Z"></path><path transform="translate(1570 100)" d="M37.6,1.4C49.8,1.4 61.5,-9.8 61.5,-29.5C61.5,-46.9 52.8,-58.3 39.2,-58.3C34,-58.3 28.7,-56 24.5,-52.2L24.9,-60.7L24.9,-79.9L7.2,-79.9L7.2,-0L21.1,-0L22.5,-6.1L22.9,-6.1C27.4,-1.1 32.6,1.4 37.6,1.4ZM33.4,-13.2C30.7,-13.2 27.7,-14 24.9,-16.5L24.9,-39C28,-42.3 30.7,-43.8 34,-43.8C40.3,-43.8 43.2,-39.1 43.2,-29.1C43.2,-17.7 38.8,-13.2 33.4,-13.2Z"></path></svg>