<svg  xmlns="http://www.w3.org/2000/svg" xmlns:xlink="http://www.w3.org/1999/xlink" width="1555" height="100" viewBox="0 0 1579 124"><path transform="translate(0 100)" d="M53.6,-32.1L53.6,-58.6L82.3,-58.6L82.3,-32.1L53.6,-32.1ZM17.3,-32.1L17.3,-58.6L45.9,-58.6L45.9,-32.1L17.3,-32.1ZM53.6,-65.9L53.6,-83.7L45.9,-83.7L45.9,-65.9L10,-65.9L10,-18.6L17.3,-18.6L17.3,-24.8L45.9,-24.8L45.9,7.6L53.6,7.6L53.6,-24.8L82.3,-24.8L82.3,-19.1L89.9,-19.1L89.9,-65.9L53.6,-65.9Z"></path><path transform="translate(100 100)" d="M57.8,-68.9C56.4,-73.1 53,-79.5 50,-84.2L42.3,-82C45.3,-77.1 48.5,-70.4 49.7,-66.3L57.8,-68.9ZM70.9,-58.8C65.9,-45.3 59.2,-34.3 50.3,-25.3C40.9,-34.7 33.7,-46.1 28.5,-58.8L70.9,-58.8ZM95,-58.8L95,-66.1L5.4,-66.1L5.4,-58.8L20.8,-58.8C26.6,-43.7 34.5,-30.7 44.8,-20.1C33.9,-10.9 20.5,-4.1 4,0.6C5.5,2.3 7.7,5.7 8.6,7.5C25.2,2.2 39,-5 50.2,-14.8C61.3,-4.8 74.9,2.5 91.2,7.1C92.4,5 94.5,1.9 96.3,0.2C80.4,-3.7 66.9,-10.8 55.9,-20.1C65.9,-30.4 73.6,-43 79.3,-58.8L95,-58.8Z"></path><path transform="translate(200 100)" d="M50.6,-20.7C48.2,-25 44.7,-30.4 40.8,-36C43.5,-44.2 45.6,-53.3 47.2,-63L40.4,-63.7C39.2,-56.3 37.8,-49.4 35.9,-42.8C32.1,-47.9 28.1,-53.1 24.2,-57.6L19.6,-53.5C24.1,-48 29,-41.5 33.4,-35.2C29.6,-24.6 24.3,-15.7 17.4,-9C19,-8 22.1,-5.9 23.2,-4.9C29.2,-11.3 34.1,-19.2 38.1,-28.6C41.1,-23.9 43.8,-19.5 45.7,-15.9L50.6,-20.7ZM79.7,-17.2C77.3,-22.5 73.5,-29.1 69.1,-35.8C71.8,-44 73.8,-53 75.3,-62.8L68.6,-63.5C67.5,-56.2 66.2,-49.3 64.3,-42.8C60.7,-47.8 56.9,-52.8 53.1,-57.2L48.3,-53.5C52.8,-47.9 57.6,-41.4 61.9,-35.1C57.9,-24.1 52.6,-14.9 45.2,-8.2C46.9,-7.3 49.8,-5.2 51.1,-4.1C57.4,-10.6 62.3,-18.6 66.3,-28.1C69.7,-22.5 72.5,-17.2 74.5,-12.9L79.7,-17.2ZM91.1,-77.6L9.2,-77.6L9.2,7.5L16.6,7.5L16.6,-70.6L83.8,-70.6L83.8,-2.2C83.8,-0.5 83,0.1 81.2,0.2C79.3,0.2 72.8,0.3 66.2,-0C67.2,2.1 68.6,5.3 69,7.4C78,7.5 83.4,7.3 86.6,6.1C89.8,4.8 91.1,2.5 91.1,-2.2L91.1,-77.6Z"></path><path transform="translate(300 100)" d="M15.6,-66.1L84,-66.1L84,-52.8L91.6,-52.8L91.6,-73.2L56.3,-73.2C54.9,-76.6 52.2,-81 49.6,-84.4L42.5,-82C44.4,-79.4 46.3,-76.1 47.7,-73.2L8.3,-73.2L8.3,-52.8L15.6,-52.8L15.6,-66.1ZM92.6,-30.1L53.8,-30.1L53.8,-33.8C62.5,-38.4 71.4,-45.1 77.7,-51.5L72.6,-55.4L71,-55L23.5,-55L23.5,-48L63.5,-48C58.5,-43.6 51.9,-39.1 46.1,-36.3L46.1,-30.1L7.1,-30.1L7.1,-23L46.1,-23L46.1,-1.6C46.1,-0.2 45.6,0.2 43.7,0.3C42,0.4 35.6,0.4 28.8,0.2C30.1,2.1 31.6,5.4 32.2,7.5C40.5,7.5 45.7,7.4 49.2,6.2C52.7,5.1 53.8,2.9 53.8,-1.5L53.8,-23L92.6,-23L92.6,-30.1Z"></path><path transform="translate(400 100)" d="M34.7,-67C31.3,-71.1 24.3,-77.5 18.8,-81.9L14,-77.1C19.5,-72.5 26.4,-65.8 29.7,-61.5L34.7,-67ZM28.2,-10L28.2,-52.4L5,-52.4L5,-45.1L20.7,-45.1L20.7,-9.3C20.7,-5.1 17.8,-2.3 15.9,-1C17.2,0.6 19.1,3.8 19.8,5.8C21.4,3.7 24.2,1.5 42.8,-11.7C42.2,-13.2 40.9,-16.3 40.4,-18.2L28.2,-10ZM95.6,-50.6L70.3,-50.6L70.3,-83.3L62.6,-83.3L62.6,-50.6L37.2,-50.6L37.2,-43.1L62.6,-43.1L62.6,7.7L70.3,7.7L70.3,-43.1L95.6,-43.1L95.6,-50.6Z"></path><path transform="translate(500 100)" d="M50.5,-67.8C47.6,-71.7 41.2,-77.5 36,-81.4L31,-77.4C36.2,-73.3 42.5,-67.2 45.3,-63.3L50.5,-67.8ZM59.4,-53.4L58.7,-60.4L27.2,-56.8C26.3,-65.3 25.8,-74.2 25.8,-83.5L18.3,-83.5C18.4,-74.1 19,-64.9 20,-56L4,-54.2L4.8,-47.2L20.8,-49.1C22.4,-37.5 24.7,-27 27.6,-18.2C20.8,-11 12.9,-4.9 4.2,-0.3C5.8,1.1 8.4,4 9.5,5.6C17,1.1 24,-4.4 30.4,-10.8C35.1,0.5 41.1,7.3 48,7.3C54.8,7.3 57.5,2.9 58.9,-12.2C56.9,-12.8 54.3,-14.5 52.6,-16.1C52,-4.5 50.9,-0 48.4,-0C44.3,-0 39.7,-6.3 35.9,-16.8C42.8,-25.1 48.8,-34.6 53.3,-45.4L46.2,-47.5C42.9,-39.2 38.5,-31.6 33.2,-24.8C31.2,-31.9 29.3,-40.5 28,-49.8L59.4,-53.4ZM71.7,-72.6L64.6,-72.6L64.6,-18.1L71.7,-18.1L71.7,-72.6ZM83.7,-82.5L83.7,-2C83.7,-0.2 83,0.3 81.3,0.3C79.6,0.4 73.9,0.5 67.6,0.3C68.6,2.4 69.7,5.6 70.1,7.6C78.7,7.6 83.7,7.4 86.8,6.1C89.8,4.9 91,2.8 91,-2.1L91,-82.6L83.7,-82.5Z"></path><path transform="translate(600 100)" d=""></path><path transform="translate(622 100)" d="M25.3,-0L34.6,-0L34.6,-65.5L56.8,-65.5L56.8,-73.3L3.1,-73.3L3.1,-65.5L25.3,-65.5L25.3,-0Z"></path><path transform="translate(682 100)" d="M9.2,-0L18.3,-0L18.3,-39.4C23.8,-44.9 27.6,-47.7 33.2,-47.7C40.4,-47.7 43.5,-43.4 43.5,-33.2L43.5,-0L52.6,-0L52.6,-34.4C52.6,-48.3 47.4,-55.7 36,-55.7C28.6,-55.7 23,-51.6 18,-46.6L18.3,-57.8L18.3,-79.6L9.2,-79.6L9.2,-0Z"></path><path transform="translate(743 100)" d="M31.1,1.3C38.5,1.3 44.3,-1.2 49.1,-4.3L45.8,-10.3C41.8,-7.6 37.5,-6 32.2,-6C21.9,-6 14.8,-13.4 14.2,-25L50.8,-25C51,-26.3 51.2,-28.2 51.2,-30.2C51.2,-45.7 43.4,-55.7 29.6,-55.7C17,-55.7 5.1,-44.7 5.1,-27.1C5.1,-9.2 16.7,1.3 31.1,1.3ZM14.1,-31.5C15.2,-42.2 22,-48.4 29.7,-48.4C38.2,-48.4 43.2,-42.5 43.2,-31.5L14.1,-31.5Z"></path><path transform="translate(798 100)" d=""></path><path transform="translate(820 100)" d="M10,-0L19.3,-0L19.3,-29.1L31.4,-29.1C47.4,-29.1 58.4,-36.3 58.4,-51.8C58.4,-67.8 47.4,-73.3 30.9,-73.3L10,-73.3L10,-0ZM19.3,-36.6L19.3,-65.8L29.8,-65.8C42.7,-65.8 49.2,-62.4 49.2,-51.8C49.2,-41.3 43.1,-36.6 30.2,-36.6L19.3,-36.6Z"></path><path transform="translate(883 100)" d="M9.2,-0L18.3,-0L18.3,-34.9C21.9,-44.2 27.5,-47.4 32,-47.4C34.2,-47.4 35.5,-47.2 37.3,-46.5L39,-54.5C37.3,-55.4 35.6,-55.7 33.2,-55.7C27.1,-55.7 21.6,-51.3 17.8,-44.4L17.5,-44.4L16.7,-54.3L9.2,-54.3L9.2,-0Z"></path><path transform="translate(921 100)" d="M30.3,1.3C43.6,1.3 55.5,-9.1 55.5,-27.1C55.5,-45.2 43.6,-55.7 30.3,-55.7C17,-55.7 5.1,-45.2 5.1,-27.1C5.1,-9.1 17,1.3 30.3,1.3ZM30.3,-6.3C20.9,-6.3 14.6,-14.6 14.6,-27.1C14.6,-39.6 20.9,-48.1 30.3,-48.1C39.7,-48.1 46.1,-39.6 46.1,-27.1C46.1,-14.6 39.7,-6.3 30.3,-6.3Z"></path><path transform="translate(982 100)" d="M3.6,24.3C14.3,24.3 18.4,17.3 18.4,6.2L18.4,-54.3L9.3,-54.3L9.3,6.2C9.3,12.8 8,16.9 2.5,16.9C0.6,16.9 -1.2,16.4 -2.6,15.9L-4.4,22.9C-2.5,23.6 0.3,24.3 3.6,24.3ZM13.9,-65.5C17.4,-65.5 20.2,-68 20.2,-71.4C20.2,-75.1 17.4,-77.3 13.9,-77.3C10.3,-77.3 7.6,-75.1 7.6,-71.4C7.6,-68 10.3,-65.5 13.9,-65.5Z"></path><path transform="translate(1009 100)" d="M31.1,1.3C38.5,1.3 44.3,-1.2 49.1,-4.3L45.8,-10.3C41.8,-7.6 37.5,-6 32.2,-6C21.9,-6 14.8,-13.4 14.2,-25L50.8,-25C51,-26.3 51.2,-28.2 51.2,-30.2C51.2,-45.7 43.4,-55.7 29.6,-55.7C17,-55.7 5.1,-44.7 5.1,-27.1C5.1,-9.2 16.7,1.3 31.1,1.3ZM14.1,-31.5C15.2,-42.2 22,-48.4 29.7,-48.4C38.2,-48.4 43.2,-42.5 43.2,-31.5L14.1,-31.5Z"></path><path transform="translate(1064 100)" d="M30.6,1.3C37.1,1.3 43.3,-1.2 48.1,-5.6L44.2,-11.7C40.8,-8.6 36.4,-6.3 31.4,-6.3C21.4,-6.3 14.6,-14.6 14.6,-27.1C14.6,-39.6 21.8,-48.1 31.6,-48.1C36,-48.1 39.3,-46.1 42.5,-43.2L47.2,-49.3C43.3,-52.7 38.4,-55.7 31.3,-55.7C17.4,-55.7 5.1,-45.2 5.1,-27.1C5.1,-9.1 16.2,1.3 30.6,1.3Z"></path><path transform="translate(1114 100)" d="M26.3,1.3C29.6,1.3 33.2,0.3 36.3,-0.7L34.5,-7.5C32.7,-6.8 30.2,-6.1 28.3,-6.1C22,-6.1 19.9,-9.9 19.9,-16.6L19.9,-46.9L34.6,-46.9L34.6,-54.3L19.9,-54.3L19.9,-69.5L12.3,-69.5L11.2,-54.3L2.7,-53.8L2.7,-46.9L10.8,-46.9L10.8,-16.8C10.8,-5.9 14.7,1.3 26.3,1.3Z"></path><path transform="translate(1152 100)" d=""></path><path transform="translate(1174 100)" d="M10,-0L19.3,-0L19.3,-32.9L47.3,-32.9L47.3,-40.7L19.3,-40.7L19.3,-65.5L52.3,-65.5L52.3,-73.3L10,-73.3L10,-0Z"></path><path transform="translate(1228 100)" d="M30.3,1.3C43.6,1.3 55.5,-9.1 55.5,-27.1C55.5,-45.2 43.6,-55.7 30.3,-55.7C17,-55.7 5.1,-45.2 5.1,-27.1C5.1,-9.1 17,1.3 30.3,1.3ZM30.3,-6.3C20.9,-6.3 14.6,-14.6 14.6,-27.1C14.6,-39.6 20.9,-48.1 30.3,-48.1C39.7,-48.1 46.1,-39.6 46.1,-27.1C46.1,-14.6 39.7,-6.3 30.3,-6.3Z"></path><path transform="translate(1289 100)" d="M9.2,-0L18.3,-0L18.3,-34.9C21.9,-44.2 27.5,-47.4 32,-47.4C34.2,-47.4 35.5,-47.2 37.3,-46.5L39,-54.5C37.3,-55.4 35.6,-55.7 33.2,-55.7C27.1,-55.7 21.6,-51.3 17.8,-44.4L17.5,-44.4L16.7,-54.3L9.2,-54.3L9.2,-0Z"></path><path transform="translate(1328 100)" d=""></path><path transform="translate(1350 100)" d="M18.1,-0L29.1,-0L40,-44.2C41.2,-50 42.5,-55.3 43.7,-60.9L44.1,-60.9C45.3,-55.3 46.4,-50 47.7,-44.2L58.8,-0L69.9,-0L85.1,-73.3L76.2,-73.3L68.5,-33.4C67.1,-25.6 65.7,-17.7 64.3,-9.7L63.8,-9.7C62.1,-17.7 60.4,-25.6 58.6,-33.4L48.3,-73.3L39.9,-73.3L29.8,-33.4C28,-25.5 26.2,-17.6 24.5,-9.7L24.1,-9.7C22.7,-17.6 21.2,-25.5 19.8,-33.4L12.1,-73.3L2.5,-73.3L18.1,-0Z"></path><path transform="translate(1438 100)" d="M31.1,1.3C38.5,1.3 44.3,-1.2 49.1,-4.3L45.8,-10.3C41.8,-7.6 37.5,-6 32.2,-6C21.9,-6 14.8,-13.4 14.2,-25L50.8,-25C51,-26.3 51.2,-28.2 51.2,-30.2C51.2,-45.7 43.4,-55.7 29.6,-55.7C17,-55.7 5.1,-44.7 5.1,-27.1C5.1,-9.2 16.7,1.3 31.1,1.3ZM14.1,-31.5C15.2,-42.2 22,-48.4 29.7,-48.4C38.2,-48.4 43.2,-42.5 43.2,-31.5L14.1,-31.5Z"></path><path transform="translate(1493 100)" d="M33.1,1.3C45.6,1.3 56.7,-9.4 56.7,-28.1C56.7,-44.7 49.1,-55.7 35,-55.7C29,-55.7 22.9,-52.3 18,-48L18.3,-57.8L18.3,-79.6L9.2,-79.6L9.2,-0L16.5,-0L17.3,-5.6L17.6,-5.6C22.4,-1.2 28.1,1.3 33.1,1.3ZM31.6,-6.3C28,-6.3 23.1,-7.8 18.3,-12L18.3,-40.5C23.5,-45.4 28.3,-48 32.9,-48C43.2,-48 47.2,-39.9 47.2,-27.9C47.2,-14.4 40.6,-6.3 31.6,-6.3Z"></path></svg>