<svg  xmlns="http://www.w3.org/2000/svg" xmlns:xlink="http://www.w3.org/1999/xlink" width="1574" height="100" viewBox="0 0 1598 124"><path transform="translate(0 100)" d="M54.6,-33.1L54.6,-57.3L80.6,-57.3L80.6,-33.1L54.6,-33.1ZM19,-33.1L19,-57.3L44.9,-57.3L44.9,-33.1L19,-33.1ZM54.6,-66.4L54.6,-83.8L44.9,-83.8L44.9,-66.4L9.7,-66.4L9.7,-18.1L19,-18.1L19,-24L44.9,-24L44.9,7.8L54.6,7.8L54.6,-24L80.6,-24L80.6,-18.6L90.3,-18.6L90.3,-66.4L54.6,-66.4Z"></path><path transform="translate(100 100)" d="M69.2,-57.7C64.7,-45.4 58.5,-35.2 50.4,-26.8C41.9,-35.6 35.2,-45.9 30.4,-57.7L69.2,-57.7ZM95.1,-57.7L95.1,-66.7L50.2,-66.7L59.1,-69.5C57.8,-73.6 54.6,-80 51.7,-84.7L41.9,-81.8C44.6,-77.1 47.4,-70.8 48.6,-66.7L5.3,-66.7L5.3,-57.7L20.7,-57.7C26.3,-43.1 33.7,-30.6 43.4,-20.3C32.8,-11.6 19.7,-5.4 3.6,-1.1C5.5,1.1 8.3,5.4 9.4,7.8C25.6,2.8 39.2,-4.2 50.3,-13.6C61.1,-4.2 74.4,2.9 90.3,7.2C91.8,4.5 94.5,0.6 96.6,-1.4C81.2,-5.2 68.2,-11.7 57.5,-20.4C66.9,-30.4 74.3,-42.6 79.6,-57.7L95.1,-57.7Z"></path><path transform="translate(200 100)" d="M79.7,-19C77.5,-23.9 74,-29.9 69.8,-36C72.2,-44.1 74,-52.9 75.3,-62.5L67,-63.4C66.1,-56.8 65,-50.5 63.6,-44.6C60.3,-48.9 56.9,-53.1 53.5,-56.8L47.8,-51.8C52.2,-46.7 56.7,-40.8 60.7,-34.9C57.1,-24.1 51.9,-15 44.8,-8.5C46.8,-7.3 50.5,-4.6 52,-3.4C58,-9.4 62.7,-17.2 66.3,-26.3C69.3,-21.5 71.7,-17 73.4,-13.2L79.7,-19ZM91.4,-78.1L8.8,-78.1L8.8,7.7L18.1,7.7L18.1,-9C20.2,-7.7 23.5,-5.4 24.9,-4.2C30.5,-10.2 35.1,-17.9 38.6,-26.8C41.3,-22.8 43.7,-19.1 45.4,-15.9L51.3,-22.3C49,-26.2 45.6,-31 41.9,-36.1C44.4,-44.2 46.2,-53.1 47.7,-62.7L39.4,-63.6C38.5,-56.8 37.2,-50.3 35.6,-44.2C32.1,-48.7 28.4,-53.2 24.9,-57.2L19.5,-51.8C23.8,-46.7 28.5,-40.7 32.9,-34.9C29.4,-24.7 24.6,-16.1 18.1,-9.7L18.1,-69.3L82.1,-69.3L82.1,-4C82.1,-2.1 81.4,-1.5 79.5,-1.4C77.5,-1.3 70.6,-1.2 64.3,-1.6C65.6,0.8 67.2,5.1 67.8,7.7C76.9,7.7 82.7,7.5 86.4,6C90,4.5 91.4,1.7 91.4,-3.9L91.4,-78.1Z"></path><path transform="translate(300 100)" d="M17.1,-65.2L82.4,-65.2L82.4,-52.6L91.9,-52.6L91.9,-74L57.2,-74C55.8,-77.3 53.3,-81.4 50.8,-84.7L41.7,-81.8C43.3,-79.5 44.9,-76.6 46.2,-74L8,-74L8,-52.6L17.1,-52.6L17.1,-65.2ZM92.8,-30.6L54.9,-30.6L54.9,-33.3C63.4,-38.2 71.8,-44.7 77.9,-50.9L71.6,-55.7L69.5,-55.2L23.7,-55.2L23.7,-46.6L60.1,-46.6C55.6,-42.8 50.1,-38.9 45,-36.4L45,-30.6L7.1,-30.6L7.1,-21.7L45,-21.7L45,-3.3C45,-1.9 44.4,-1.4 42.6,-1.4C40.7,-1.3 33.8,-1.3 27.5,-1.5C29,0.9 30.9,5.1 31.5,7.8C39.7,7.8 45.5,7.7 49.5,6.2C53.6,4.8 54.9,2.2 54.9,-3L54.9,-21.7L92.8,-21.7L92.8,-30.6Z"></path><path transform="translate(400 100)" d="M35.4,-67.7C32,-71.9 24.7,-78.1 19.1,-82.5L13.2,-76.5C18.7,-71.8 25.8,-65.1 29.1,-60.9L35.4,-67.7ZM29.4,-12.4L29.4,-53.1L4.8,-53.1L4.8,-43.9L19.9,-43.9L19.9,-10.8C19.9,-6.4 16.9,-3.3 14.8,-2.1C16.5,-0 18.8,4.1 19.6,6.6C21.3,4.4 24.4,2 43.6,-11.9C42.8,-13.7 41.3,-17.6 40.7,-20.3L29.4,-12.4ZM95.8,-51.7L71.6,-51.7L71.6,-83.5L61.7,-83.5L61.7,-51.7L37.1,-51.7L37.1,-42.1L61.7,-42.1L61.7,7.9L71.6,7.9L71.6,-42.1L95.8,-42.1L95.8,-51.7Z"></path><path transform="translate(500 100)" d="M51.1,-68.9C48.1,-72.8 41.9,-78.4 36.8,-82.3L30.5,-77.3C35.6,-73.2 41.7,-67.1 44.5,-63.2L51.1,-68.9ZM59.1,-52.6L58.2,-61.4L27.7,-58C26.9,-66.2 26.4,-74.8 26.5,-83.8L17,-83.8C17.1,-74.7 17.6,-65.6 18.5,-56.9L3.7,-55.2L4.7,-46.4L19.5,-48.1C21,-37 23.1,-26.7 25.9,-18.2C19.4,-11.4 12,-5.8 3.9,-1.5C5.8,0.3 9.1,3.9 10.3,5.8C17.1,1.7 23.5,-3.2 29.3,-8.9C34,1.2 39.7,7.4 46.7,7.4C54.4,7.4 57.6,3.1 59.1,-13C56.8,-13.9 53.4,-15.9 51.4,-18C50.8,-6.4 49.7,-1.9 47.4,-1.9C43.7,-1.9 39.7,-7.4 36.3,-16.5C43.4,-24.7 49.2,-34.4 53.7,-44.9L45,-47.6C41.9,-40 37.9,-33 33.2,-26.7C31.4,-33.3 29.8,-40.8 28.8,-49.2L59.1,-52.6ZM72.3,-73.2L63.4,-73.2L63.4,-18.7L72.3,-18.7L72.3,-73.2ZM82.4,-82.9L82.4,-3.5C82.4,-1.7 81.7,-1.2 79.9,-1.2C78.3,-1.1 72.5,-1.1 66.6,-1.3C67.8,1.3 69.3,5.4 69.7,7.9C78.2,7.9 83.5,7.6 86.9,6.1C90.2,4.6 91.4,2 91.4,-3.5L91.4,-82.9L82.4,-82.9Z"></path><path transform="translate(600 100)" d=""></path><path transform="translate(622 100)" d="M24.7,-0L36.3,-0L36.3,-63.9L58,-63.9L58,-73.6L3.1,-73.6L3.1,-63.9L24.7,-63.9L24.7,-0Z"></path><path transform="translate(683 100)" d="M8.7,-0L20.1,-0L20.1,-39C25,-43.9 28.5,-46.5 33.6,-46.5C40.1,-46.5 42.9,-42.7 42.9,-33.2L42.9,-0L54.4,-0L54.4,-34.6C54.4,-48.6 49.2,-56.4 37.5,-56.4C30,-56.4 24.5,-52.3 19.7,-47.7L20.1,-58.6L20.1,-79.7L8.7,-79.7L8.7,-0Z"></path><path transform="translate(745 100)" d="M31.6,1.3C38.8,1.3 45.1,-1.1 50.2,-4.5L46.2,-11.8C42.2,-9.2 38,-7.7 33.1,-7.7C23.6,-7.7 17,-14 16.1,-24.5L51.8,-24.5C52.1,-25.8 52.3,-28.1 52.3,-30.3C52.3,-45.9 44.5,-56.4 29.9,-56.4C17,-56.4 4.8,-45.3 4.8,-27.4C4.8,-9.3 16.7,1.3 31.6,1.3ZM16,-32.4C17.1,-42.1 23.2,-47.4 30.1,-47.4C38.1,-47.4 42.4,-41.9 42.4,-32.4L16,-32.4Z"></path><path transform="translate(801 100)" d=""></path><path transform="translate(823 100)" d="M9.7,-0L21.3,-0L21.3,-27.9L32.4,-27.9C48.4,-27.9 60.1,-35.3 60.1,-51.4C60.1,-68 48.4,-73.6 32,-73.6L9.7,-73.6L9.7,-0ZM21.3,-37.2L21.3,-64.3L30.9,-64.3C42.6,-64.3 48.7,-61.1 48.7,-51.4C48.7,-41.7 43.1,-37.2 31.3,-37.2L21.3,-37.2Z"></path><path transform="translate(888 100)" d="M8.7,-0L20.1,-0L20.1,-34.3C23.6,-43 29,-46.1 33.5,-46.1C35.7,-46.1 37.1,-45.8 39,-45.2L41.1,-55.2C39.4,-56 37.6,-56.4 34.9,-56.4C29,-56.4 23.2,-52.2 19.3,-45.1L19,-45.1L18.1,-55L8.7,-55L8.7,-0Z"></path><path transform="translate(928 100)" d="M30.7,1.3C44.3,1.3 56.6,-9.2 56.6,-27.4C56.6,-45.8 44.3,-56.4 30.7,-56.4C17.1,-56.4 4.8,-45.8 4.8,-27.4C4.8,-9.2 17.1,1.3 30.7,1.3ZM30.7,-8.1C22.1,-8.1 16.7,-15.8 16.7,-27.4C16.7,-39.1 22.1,-46.9 30.7,-46.9C39.4,-46.9 44.8,-39.1 44.8,-27.4C44.8,-15.8 39.4,-8.1 30.7,-8.1Z"></path><path transform="translate(989 100)" d="M3.7,23.7C15.9,23.7 20.3,15.6 20.3,4.1L20.3,-55L8.8,-55L8.8,4.3C8.8,10.8 7.4,14.5 2.2,14.5C0.5,14.5 -1.2,14 -2.7,13.6L-4.8,22.2C-2.8,23 0,23.7 3.7,23.7ZM14.5,-65.3C18.7,-65.3 21.9,-68.1 21.9,-72.1C21.9,-76.2 18.7,-78.9 14.5,-78.9C10.3,-78.9 7.2,-76.2 7.2,-72.1C7.2,-68.1 10.3,-65.3 14.5,-65.3Z"></path><path transform="translate(1018 100)" d="M31.6,1.3C38.8,1.3 45.1,-1.1 50.2,-4.5L46.2,-11.8C42.2,-9.2 38,-7.7 33.1,-7.7C23.6,-7.7 17,-14 16.1,-24.5L51.8,-24.5C52.1,-25.8 52.3,-28.1 52.3,-30.3C52.3,-45.9 44.5,-56.4 29.9,-56.4C17,-56.4 4.8,-45.3 4.8,-27.4C4.8,-9.3 16.7,1.3 31.6,1.3ZM16,-32.4C17.1,-42.1 23.2,-47.4 30.1,-47.4C38.1,-47.4 42.4,-41.9 42.4,-32.4L16,-32.4Z"></path><path transform="translate(1074 100)" d="M31.1,1.3C37.4,1.3 43.9,-1 48.9,-5.5L44.2,-13.1C40.9,-10.3 36.8,-8.1 32.2,-8.1C23,-8.1 16.7,-15.8 16.7,-27.4C16.7,-39.1 23.3,-46.9 32.5,-46.9C36.3,-46.9 39.4,-45.3 42.4,-42.6L48.1,-50.1C44.1,-53.6 39,-56.4 32,-56.4C17.5,-56.4 4.8,-45.8 4.8,-27.4C4.8,-9.2 16.2,1.3 31.1,1.3Z"></path><path transform="translate(1125 100)" d="M27.2,1.3C31.2,1.3 34.9,0.3 38,-0.7L35.9,-9.2C34.3,-8.5 31.9,-7.9 30,-7.9C24.3,-7.9 22,-11.3 22,-17.9L22,-45.8L36.3,-45.8L36.3,-55L22,-55L22,-70.2L12.3,-70.2L11,-55L2.5,-54.4L2.5,-45.8L10.5,-45.8L10.5,-18C10.5,-6.4 14.8,1.3 27.2,1.3Z"></path><path transform="translate(1165 100)" d=""></path><path transform="translate(1187 100)" d="M9.7,-0L21.3,-0L21.3,-31.7L48.5,-31.7L48.5,-41.4L21.3,-41.4L21.3,-63.9L53.3,-63.9L53.3,-73.6L9.7,-73.6L9.7,-0Z"></path><path transform="translate(1242 100)" d="M30.7,1.3C44.3,1.3 56.6,-9.2 56.6,-27.4C56.6,-45.8 44.3,-56.4 30.7,-56.4C17.1,-56.4 4.8,-45.8 4.8,-27.4C4.8,-9.2 17.1,1.3 30.7,1.3ZM30.7,-8.1C22.1,-8.1 16.7,-15.8 16.7,-27.4C16.7,-39.1 22.1,-46.9 30.7,-46.9C39.4,-46.9 44.8,-39.1 44.8,-27.4C44.8,-15.8 39.4,-8.1 30.7,-8.1Z"></path><path transform="translate(1303 100)" d="M8.7,-0L20.1,-0L20.1,-34.3C23.6,-43 29,-46.1 33.5,-46.1C35.7,-46.1 37.1,-45.8 39,-45.2L41.1,-55.2C39.4,-56 37.6,-56.4 34.9,-56.4C29,-56.4 23.2,-52.2 19.3,-45.1L19,-45.1L18.1,-55L8.7,-55L8.7,-0Z"></path><path transform="translate(1344 100)" d=""></path><path transform="translate(1366 100)" d="M17.3,-0L31.3,-0L41,-40.9C42.2,-46.7 43.4,-52.2 44.4,-57.8L44.9,-57.8C45.9,-52.2 47,-46.7 48.3,-40.9L58.2,-0L72.5,-0L87,-73.6L75.9,-73.6L68.9,-35.3C67.7,-27.6 66.4,-19.7 65.2,-11.7L64.7,-11.7C63,-19.7 61.4,-27.6 59.7,-35.3L50.1,-73.6L39.9,-73.6L30.4,-35.3C28.7,-27.5 27,-19.6 25.4,-11.7L25,-11.7L21.1,-35.3L14.2,-73.6L2.2,-73.6L17.3,-0Z"></path><path transform="translate(1455 100)" d="M31.6,1.3C38.8,1.3 45.1,-1.1 50.2,-4.5L46.2,-11.8C42.2,-9.2 38,-7.7 33.1,-7.7C23.6,-7.7 17,-14 16.1,-24.5L51.8,-24.5C52.1,-25.8 52.3,-28.1 52.3,-30.3C52.3,-45.9 44.5,-56.4 29.9,-56.4C17,-56.4 4.8,-45.3 4.8,-27.4C4.8,-9.3 16.7,1.3 31.6,1.3ZM16,-32.4C17.1,-42.1 23.2,-47.4 30.1,-47.4C38.1,-47.4 42.4,-41.9 42.4,-32.4L16,-32.4Z"></path><path transform="translate(1511 100)" d="M34.3,1.3C46.7,1.3 58,-9.5 58,-28.4C58,-45.3 50.1,-56.4 36.2,-56.4C30.4,-56.4 24.5,-53.3 19.8,-49.2L20.1,-58.6L20.1,-79.7L8.7,-79.7L8.7,-0L17.7,-0L18.8,-5.7L19.1,-5.7C23.8,-1.2 29.3,1.3 34.3,1.3ZM32.1,-8.2C28.7,-8.2 24.3,-9.5 20.1,-13.2L20.1,-40.1C24.7,-44.6 28.9,-46.8 33.2,-46.8C42.4,-46.8 46.1,-39.7 46.1,-28.2C46.1,-15.3 40.1,-8.2 32.1,-8.2Z"></path></svg>