<svg  xmlns="http://www.w3.org/2000/svg" xmlns:xlink="http://www.w3.org/1999/xlink" width="1546" height="100" viewBox="0 0 1570 124"><path transform="translate(0 100)" d="M53.2,-31.8L53.2,-59.2L82.9,-59.2L82.9,-31.8L53.2,-31.8ZM16.7,-31.8L16.7,-59.2L46.3,-59.2L46.3,-31.8L16.7,-31.8ZM53.2,-65.7L53.2,-83.6L46.3,-83.6L46.3,-65.7L10.1,-65.7L10.1,-18.9L16.7,-18.9L16.7,-25.2L46.3,-25.2L46.3,7.4L53.2,7.4L53.2,-25.2L82.9,-25.2L82.9,-19.4L89.7,-19.4L89.7,-65.7L53.2,-65.7Z"></path><path transform="translate(100 100)" d="M57.3,-68.7C55.9,-72.9 52.4,-79.3 49.3,-84L42.5,-82C45.6,-77.1 48.9,-70.4 50.1,-66.4L57.3,-68.7ZM71.6,-59.3C66.4,-45.4 59.4,-33.9 50.2,-24.7C40.5,-34.4 33,-46.1 27.6,-59.3L71.6,-59.3ZM94.9,-59.3L94.9,-65.8L5.4,-65.8L5.4,-59.3L20.9,-59.3C26.7,-44.1 34.8,-30.8 45.3,-20C34.3,-10.6 20.8,-3.7 4.1,1.2C5.5,2.7 7.5,5.8 8.2,7.3C25,1.9 38.8,-5.4 50.1,-15.3C61.4,-5.2 75.2,2.4 91.6,6.9C92.7,5.1 94.6,2.3 96.1,0.9C80,-3.2 66.4,-10.4 55.1,-20.1C65.4,-30.4 73.3,-43.2 79.1,-59.3L94.9,-59.3Z"></path><path transform="translate(200 100)" d="M50.3,-20.1C47.9,-24.5 44.3,-30.2 40.3,-36C43.1,-44.3 45.3,-53.4 47,-63.2L40.8,-63.9C39.6,-56.1 38,-48.9 36,-42.1C32.1,-47.5 27.9,-53 23.8,-57.8L19.7,-54.2C24.3,-48.5 29.2,-41.9 33.7,-35.3C29.7,-24.7 24.4,-15.6 17.3,-8.9C18.7,-8 21.5,-6.1 22.5,-5.1C28.7,-11.6 33.7,-19.8 37.8,-29.4C41,-24.4 43.8,-19.7 45.8,-15.9L50.3,-20.1ZM79.7,-16.5C77.2,-21.9 73.4,-28.7 68.8,-35.7C71.6,-43.9 73.7,-53 75.3,-62.9L69.3,-63.7C68.1,-56 66.6,-48.7 64.6,-41.9C60.9,-47.4 56.9,-52.7 52.9,-57.4L48.5,-54.2C53.1,-48.4 57.9,-41.7 62.4,-35C58.3,-24.1 52.8,-14.9 45.4,-8C46.9,-7.2 49.5,-5.4 50.7,-4.4C57.2,-11 62.3,-19.1 66.3,-28.8C69.9,-22.9 72.9,-17.3 74.9,-12.7L79.7,-16.5ZM91.1,-77.4L9.3,-77.4L9.3,7.4L15.9,7.4L15.9,-71.1L84.5,-71.1L84.5,-1.5C84.5,0.2 83.7,0.8 81.9,0.9C80.1,0.9 73.7,1 67,0.7C67.9,2.6 69.1,5.5 69.5,7.3C78.5,7.4 83.7,7.2 86.8,6.1C89.9,5 91.1,2.9 91.1,-1.5L91.1,-77.4Z"></path><path transform="translate(300 100)" d="M15,-66.6L84.7,-66.6L84.7,-52.9L91.5,-52.9L91.5,-72.9L55.9,-72.9C54.5,-76.3 51.7,-80.7 49.1,-84.2L42.7,-82.1C44.7,-79.4 46.7,-75.9 48.1,-72.9L8.5,-72.9L8.5,-52.9L15,-52.9L15,-66.6ZM92.7,-29.8L53.4,-29.8L53.4,-33.8C62.1,-38.5 71.4,-45.3 77.6,-51.7L73.1,-55.2L71.6,-54.8L23.5,-54.8L23.5,-48.5L64.9,-48.5C59.6,-43.9 52.7,-39.2 46.5,-36.2L46.5,-29.8L7.2,-29.8L7.2,-23.5L46.5,-23.5L46.5,-0.9C46.5,0.5 46,1 44.2,1C42.5,1.1 36.2,1.1 29.4,0.9C30.6,2.7 31.8,5.6 32.3,7.5C40.7,7.5 45.7,7.5 49,6.3C52.3,5.2 53.4,3.3 53.4,-0.8L53.4,-23.5L92.7,-23.5L92.7,-29.8Z"></path><path transform="translate(400 100)" d="M34.4,-66.8C31.2,-70.9 24.3,-77.2 18.6,-81.7L14.3,-77.4C19.9,-72.8 26.7,-66.1 30,-61.9L34.4,-66.8ZM27.8,-9L27.8,-52.2L5,-52.2L5,-45.6L21.1,-45.6L21.1,-8.9C21.1,-4.6 18.1,-1.8 16.3,-0.7C17.6,0.8 19.3,3.7 19.9,5.4C21.4,3.4 24.2,1.3 42.6,-11.7C41.9,-13 40.8,-15.7 40.3,-17.5L27.8,-9ZM95.5,-50.3L69.8,-50.3L69.8,-83.3L62.8,-83.3L62.8,-50.3L37.4,-50.3L37.4,-43.5L62.8,-43.5L62.8,7.6L69.8,7.6L69.8,-43.5L95.5,-43.5L95.5,-50.3Z"></path><path transform="translate(500 100)" d="M50.3,-67.4C47.3,-71.3 41,-77.1 35.7,-81.1L31.2,-77.5C36.5,-73.3 42.7,-67.3 45.6,-63.4L50.3,-67.4ZM59.6,-53.8L58.9,-60L27,-56.3C26.1,-64.9 25.5,-74 25.5,-83.4L18.7,-83.4C18.8,-73.9 19.5,-64.5 20.5,-55.5L4.1,-53.7L4.7,-47.5L21.3,-49.4C22.9,-37.7 25.3,-27 28.2,-18.2C21.3,-10.7 13.2,-4.5 4.3,0.2C5.7,1.5 8,4.1 9,5.5C16.8,0.9 24.2,-4.8 30.8,-11.5C35.6,0.1 41.7,7.3 48.5,7.3C55,7.3 57.5,2.8 58.8,-11.9C57,-12.5 54.6,-14 53.2,-15.5C52.6,-3.8 51.4,0.7 48.9,0.7C44.5,0.7 39.8,-6 35.7,-16.9C42.7,-25.3 48.6,-34.9 53.1,-45.6L46.8,-47.6C43.4,-39 38.8,-31 33.3,-24.1C31.1,-31.5 29.1,-40.4 27.8,-50.2L59.6,-53.8ZM71.5,-72.5L65.1,-72.5L65.1,-18L71.5,-18L71.5,-72.5ZM84.3,-82.5L84.3,-1.4C84.3,0.4 83.6,0.9 81.9,1C80.2,1.1 74.4,1.1 68,0.9C68.9,2.8 69.9,5.7 70.2,7.5C78.9,7.5 83.8,7.3 86.7,6.2C89.6,5 90.8,3.2 90.8,-1.5L90.8,-82.5L84.3,-82.5Z"></path><path transform="translate(600 100)" d=""></path><path transform="translate(622 100)" d="M25.5,-0L33.9,-0L33.9,-66.2L56.3,-66.2L56.3,-73.2L3.2,-73.2L3.2,-66.2L25.5,-66.2L25.5,-0Z"></path><path transform="translate(681 100)" d="M9.5,-0L17.6,-0L17.6,-39.5C23.2,-45.3 27.3,-48.3 33,-48.3C40.5,-48.3 43.7,-43.7 43.7,-33.3L43.7,-0L51.9,-0L51.9,-34.3C51.9,-48.1 46.7,-55.4 35.4,-55.4C28,-55.4 22.5,-51.2 17.3,-46.2L17.6,-57.5L17.6,-79.6L9.5,-79.6L9.5,-0Z"></path><path transform="translate(741 100)" d="M30.9,1.3C38.4,1.3 43.9,-1.2 48.6,-4.2L45.6,-9.6C41.6,-6.9 37.2,-5.2 31.9,-5.2C21.1,-5.2 13.9,-13.2 13.4,-25.2L50.3,-25.2C50.6,-26.5 50.7,-28.3 50.7,-30.1C50.7,-45.7 42.9,-55.4 29.4,-55.4C17,-55.4 5.3,-44.5 5.3,-26.9C5.3,-9.2 16.7,1.3 30.9,1.3ZM13.3,-31.1C14.4,-42.3 21.5,-48.8 29.5,-48.8C38.3,-48.8 43.5,-42.7 43.5,-31.1L13.3,-31.1Z"></path><path transform="translate(796 100)" d=""></path><path transform="translate(818 100)" d="M10.2,-0L18.5,-0L18.5,-29.6L30.9,-29.6C47,-29.6 57.7,-36.8 57.7,-52C57.7,-67.7 47,-73.2 30.5,-73.2L10.2,-73.2L10.2,-0ZM18.5,-36.4L18.5,-66.5L29.3,-66.5C42.7,-66.5 49.5,-63 49.5,-52C49.5,-41.1 43.1,-36.4 29.7,-36.4L18.5,-36.4Z"></path><path transform="translate(881 100)" d="M9.5,-0L17.6,-0L17.6,-35.2C21.3,-44.6 26.9,-48 31.5,-48C33.6,-48 34.8,-47.7 36.6,-47.1L38.2,-54.2C36.4,-55.1 34.8,-55.4 32.5,-55.4C26.4,-55.4 20.9,-50.9 17.2,-44.1L16.9,-44.1L16.1,-54L9.5,-54L9.5,-0Z"></path><path transform="translate(918 100)" d="M30.1,1.3C43.3,1.3 55,-9.1 55,-26.9C55,-45 43.3,-55.4 30.1,-55.4C16.9,-55.4 5.3,-45 5.3,-26.9C5.3,-9.1 16.9,1.3 30.1,1.3ZM30.1,-5.5C20.4,-5.5 13.7,-14.1 13.7,-26.9C13.7,-39.8 20.4,-48.5 30.1,-48.5C39.8,-48.5 46.6,-39.8 46.6,-26.9C46.6,-14.1 39.8,-5.5 30.1,-5.5Z"></path><path transform="translate(978 100)" d="M3.5,24.5C13.6,24.5 17.6,18 17.6,7.1L17.6,-54L9.5,-54L9.5,7C9.5,13.6 8.3,17.9 2.7,17.9C0.7,17.9 -1.2,17.3 -2.6,16.9L-4.2,23.1C-2.4,23.9 0.4,24.5 3.5,24.5ZM13.6,-65.6C16.9,-65.6 19.5,-67.9 19.5,-71.1C19.5,-74.6 16.9,-76.7 13.6,-76.7C10.3,-76.7 7.8,-74.6 7.8,-71.1C7.8,-67.9 10.3,-65.6 13.6,-65.6Z"></path><path transform="translate(1005 100)" d="M30.9,1.3C38.4,1.3 43.9,-1.2 48.6,-4.2L45.6,-9.6C41.6,-6.9 37.2,-5.2 31.9,-5.2C21.1,-5.2 13.9,-13.2 13.4,-25.2L50.3,-25.2C50.6,-26.5 50.7,-28.3 50.7,-30.1C50.7,-45.7 42.9,-55.4 29.4,-55.4C17,-55.4 5.3,-44.5 5.3,-26.9C5.3,-9.2 16.7,1.3 30.9,1.3ZM13.3,-31.1C14.4,-42.3 21.5,-48.8 29.5,-48.8C38.3,-48.8 43.5,-42.7 43.5,-31.1L13.3,-31.1Z"></path><path transform="translate(1060 100)" d="M30.4,1.3C37,1.3 43,-1.3 47.8,-5.6L44.2,-11C40.8,-8 36.2,-5.5 31.1,-5.5C20.7,-5.5 13.7,-14.1 13.7,-26.9C13.7,-39.8 21.2,-48.5 31.3,-48.5C35.8,-48.5 39.3,-46.5 42.5,-43.5L46.8,-48.9C43,-52.4 38.1,-55.4 31,-55.4C17.3,-55.4 5.3,-45 5.3,-26.9C5.3,-9.1 16.2,1.3 30.4,1.3Z"></path><path transform="translate(1110 100)" d="M25.9,1.3C28.9,1.3 32.5,0.3 35.5,-0.7L33.9,-6.8C32.1,-6.1 29.6,-5.4 27.6,-5.4C21.1,-5.4 19.1,-9.4 19.1,-16L19.1,-47.3L34,-47.3L34,-54L19.1,-54L19.1,-69.3L12.2,-69.3L11.3,-54L2.8,-53.5L2.8,-47.3L11,-47.3L11,-16.3C11,-5.7 14.6,1.3 25.9,1.3Z"></path><path transform="translate(1147 100)" d=""></path><path transform="translate(1169 100)" d="M10.2,-0L18.5,-0L18.5,-33.4L46.7,-33.4L46.7,-40.4L18.5,-40.4L18.5,-66.2L51.8,-66.2L51.8,-73.2L10.2,-73.2L10.2,-0Z"></path><path transform="translate(1223 100)" d="M30.1,1.3C43.3,1.3 55,-9.1 55,-26.9C55,-45 43.3,-55.4 30.1,-55.4C16.9,-55.4 5.3,-45 5.3,-26.9C5.3,-9.1 16.9,1.3 30.1,1.3ZM30.1,-5.5C20.4,-5.5 13.7,-14.1 13.7,-26.9C13.7,-39.8 20.4,-48.5 30.1,-48.5C39.8,-48.5 46.6,-39.8 46.6,-26.9C46.6,-14.1 39.8,-5.5 30.1,-5.5Z"></path><path transform="translate(1283 100)" d="M9.5,-0L17.6,-0L17.6,-35.2C21.3,-44.6 26.9,-48 31.5,-48C33.6,-48 34.8,-47.7 36.6,-47.1L38.2,-54.2C36.4,-55.1 34.8,-55.4 32.5,-55.4C26.4,-55.4 20.9,-50.9 17.2,-44.1L16.9,-44.1L16.1,-54L9.5,-54L9.5,-0Z"></path><path transform="translate(1321 100)" d=""></path><path transform="translate(1343 100)" d="M18.5,-0L28.2,-0L39.6,-45.6C40.8,-51.3 42.2,-56.5 43.3,-62.2L43.8,-62.2C45,-56.5 46.2,-51.3 47.4,-45.6L59.1,-0L68.9,-0L84.3,-73.2L76.3,-73.2L68.3,-32.5C66.8,-24.7 65.4,-16.8 64,-8.8L63.5,-8.8C61.7,-16.8 59.9,-24.8 58.1,-32.5L47.6,-73.2L39.9,-73.2L29.5,-32.5C27.7,-24.7 25.9,-16.8 24.2,-8.8L23.8,-8.8C22.3,-16.8 20.8,-24.7 19.3,-32.5L11.2,-73.2L2.7,-73.2L18.5,-0Z"></path><path transform="translate(1430 100)" d="M30.9,1.3C38.4,1.3 43.9,-1.2 48.6,-4.2L45.6,-9.6C41.6,-6.9 37.2,-5.2 31.9,-5.2C21.1,-5.2 13.9,-13.2 13.4,-25.2L50.3,-25.2C50.6,-26.5 50.7,-28.3 50.7,-30.1C50.7,-45.7 42.9,-55.4 29.4,-55.4C17,-55.4 5.3,-44.5 5.3,-26.9C5.3,-9.2 16.7,1.3 30.9,1.3ZM13.3,-31.1C14.4,-42.3 21.5,-48.8 29.5,-48.8C38.3,-48.8 43.5,-42.7 43.5,-31.1L13.3,-31.1Z"></path><path transform="translate(1485 100)" d="M32.6,1.3C45.1,1.3 56.2,-9.4 56.2,-27.9C56.2,-44.5 48.7,-55.4 34.6,-55.4C28.4,-55.4 22.3,-51.9 17.2,-47.6L17.6,-57.5L17.6,-79.6L9.5,-79.6L9.5,-0L15.9,-0L16.8,-5.6L17,-5.6C21.8,-1.2 27.6,1.3 32.6,1.3ZM31.4,-5.6C27.7,-5.6 22.5,-7.1 17.6,-11.5L17.6,-40.7C23,-45.8 28,-48.5 32.7,-48.5C43.5,-48.5 47.7,-40 47.7,-27.8C47.7,-14.1 40.8,-5.6 31.4,-5.6Z"></path></svg>