<svg  xmlns="http://www.w3.org/2000/svg" xmlns:xlink="http://www.w3.org/1999/xlink" width="1525" height="100" viewBox="0 0 1549 124"><path transform="translate(0 100)" d="M52.2,-30.9L52.2,-60.4L84.5,-60.4L84.5,-30.9L52.2,-30.9ZM15,-30.9L15,-60.4L47.3,-60.4L47.3,-30.9L15,-30.9ZM52.2,-65.1L52.2,-83.2L47.3,-83.2L47.3,-65.1L10.3,-65.1L10.3,-19.6L15,-19.6L15,-26.2L47.3,-26.2L47.3,7.2L52.2,7.2L52.2,-26.2L84.5,-26.2L84.5,-20.1L89.4,-20.1L89.4,-65.1L52.2,-65.1Z"></path><path transform="translate(100 100)" d="M56.2,-68.2C54.7,-72.3 51,-78.8 47.7,-83.6L43,-82.2C46.2,-77.3 49.7,-70.6 51.1,-66.5L56.2,-68.2ZM73.4,-60.4C67.8,-45.4 60,-33.2 50.1,-23.4C39.7,-33.6 31.5,-46.3 26,-60.4L73.4,-60.4ZM94.8,-60.4L94.8,-65.1L5.5,-65.1L5.5,-60.4L21,-60.4C27,-44.7 35.6,-31.1 46.5,-19.9C35.3,-10 21.3,-2.7 4.4,2.5C5.4,3.7 6.9,5.8 7.5,7.1C24.5,1.3 38.6,-6.3 50.1,-16.5C61.6,-5.9 75.7,2.1 92.4,6.7C93.3,5.4 94.6,3.4 95.8,2.3C79.3,-2 65.2,-9.6 53.7,-20C64.4,-30.6 72.6,-43.8 78.9,-60.4L94.8,-60.4Z"></path><path transform="translate(200 100)" d="M49.5,-18.5C47.2,-23.4 43.4,-29.7 39.1,-36.1C42.2,-44.4 44.5,-53.6 46.4,-63.5L41.8,-64.1C40.3,-55.8 38.4,-48 36,-40.7C31.9,-46.7 27.3,-52.8 23.1,-58.1L19.9,-55.7C24.6,-49.8 29.6,-42.6 34.2,-35.7C30,-24.8 24.4,-15.4 17,-8.6C18.1,-7.9 20.1,-6.3 20.9,-5.6C27.5,-12.5 32.9,-21.1 37.2,-31.1C40.8,-25.4 43.8,-20 46,-15.7L49.5,-18.5ZM79.6,-14.9C77.2,-20.6 73.1,-28 68.2,-35.6C71.2,-43.9 73.4,-53.1 75.2,-63.2L70.8,-63.8C69.4,-55.3 67.6,-47.5 65.2,-40.2C61.2,-46.4 56.8,-52.5 52.6,-57.9L49.1,-55.6C53.8,-49.5 58.8,-42.2 63.3,-35C59.1,-24 53.4,-14.7 45.8,-7.8C47,-7.2 48.8,-5.7 49.7,-5C56.6,-11.7 62.1,-20.3 66.2,-30.4C70.2,-23.8 73.6,-17.5 75.9,-12.4L79.6,-14.9ZM90.8,-77L9.6,-77L9.6,7.1L14.4,7.1L14.4,-72.4L86,-72.4L86,-0C86,1.8 85.3,2.3 83.5,2.4C81.8,2.5 75.7,2.6 68.8,2.4C69.5,3.7 70.4,5.7 70.7,7.1C79.5,7.1 84.3,7 87.1,6.2C89.7,5.3 90.8,3.7 90.8,-0.1L90.8,-77Z"></path><path transform="translate(300 100)" d="M13.6,-67.6L86.3,-67.6L86.3,-53.2L91.2,-53.2L91.2,-72.2L55,-72.2C53.7,-75.7 50.8,-80.4 48,-84L43.5,-82.4C45.7,-79.4 48.1,-75.4 49.5,-72.2L8.9,-72.2L8.9,-53.2L13.6,-53.2L13.6,-67.6ZM92.5,-29.3L52.5,-29.3L52.5,-34.2C61.2,-38.7 71,-45.6 77.5,-52.3L74.1,-54.7L73,-54.5L23.3,-54.5L23.3,-49.9L68.2,-49.9C62.5,-44.8 54.5,-39.4 47.5,-36.1L47.5,-29.3L7.3,-29.3L7.3,-24.6L47.5,-24.6L47.5,0.8C47.5,2.2 47,2.6 45.3,2.7C43.7,2.8 37.9,2.8 30.7,2.7C31.5,4 32.5,5.9 32.9,7.3C41.3,7.3 46,7.3 48.8,6.4C51.5,5.6 52.5,4.1 52.5,0.7L52.5,-24.6L92.5,-24.6L92.5,-29.3Z"></path><path transform="translate(400 100)" d="M33.8,-66.1C30.6,-70.2 23.9,-76.5 18.4,-81.1L15.1,-78.1C20.6,-73.4 27.3,-66.6 30.5,-62.4L33.8,-66.1ZM26.6,-6.7L26.6,-51.6L5.2,-51.6L5.2,-46.9L21.8,-46.9L21.8,-7.6C21.8,-3.5 18.9,-0.8 17.3,0.1C18.3,1.2 19.6,3.3 20.1,4.5C21.5,2.7 23.9,0.9 41.9,-11.6C41.4,-12.5 40.5,-14.5 40.1,-15.7L26.6,-6.7ZM95.3,-49.2L68.5,-49.2L68.5,-83.1L63.6,-83.1L63.6,-49.2L37.5,-49.2L37.5,-44.4L63.6,-44.4L63.6,7.2L68.5,7.2L68.5,-44.4L95.3,-44.4L95.3,-49.2Z"></path><path transform="translate(500 100)" d="M49.8,-66.5C46.8,-70.4 40.4,-76.2 35,-80.2L31.7,-77.7C37.1,-73.4 43.3,-67.4 46.4,-63.5L49.8,-66.5ZM59.9,-54.4L59.4,-59L26.6,-55.2C25.5,-63.9 24.8,-73.4 24.8,-83.2L19.9,-83.2C20.1,-73.4 20.8,-63.7 22,-54.6L4.3,-52.6L4.9,-48.1L22.5,-50.1C24.3,-38.1 26.9,-27.2 29.9,-18.2C22.6,-10.1 14.1,-3.5 4.6,1.5C5.7,2.4 7.5,4.3 8,5.3C16.8,0.3 24.7,-5.9 31.8,-13.4C36.8,-0.6 43,7.2 49.8,7.2C55.5,7.2 57.5,2.7 58.5,-11.2C57.3,-11.6 55.5,-12.6 54.4,-13.7C53.8,-2 52.6,2.4 50,2.4C45.2,2.4 39.8,-4.9 35.2,-17.3C42.2,-25.6 48.1,-35.3 52.6,-46.2L48.1,-47.6C44.4,-38.3 39.5,-29.7 33.4,-22.3C30.9,-30.2 28.7,-39.9 27.2,-50.6L59.9,-54.4ZM70.9,-72.1L66.2,-72.1L66.2,-17.5L70.9,-17.5L70.9,-72.1ZM85.6,-82.3L85.6,0.1C85.6,1.9 84.8,2.4 83.1,2.5C81.5,2.6 75.7,2.7 68.8,2.5C69.5,3.9 70.4,5.9 70.6,7.2C79.3,7.2 83.9,7.1 86.6,6.2C89.1,5.4 90.3,3.9 90.3,0.1L90.3,-82.3L85.6,-82.3Z"></path><path transform="translate(600 100)" d=""></path><path transform="translate(622 100)" d="M26.1,-0L32.2,-0L32.2,-67.8L55.2,-67.8L55.2,-72.9L3.2,-72.9L3.2,-67.8L26.1,-67.8L26.1,-0Z"></path><path transform="translate(680 100)" d="M10,-0L15.8,-0L15.8,-39.9C22,-46.3 26.4,-49.5 32.6,-49.5C40.8,-49.5 44.3,-44.4 44.3,-33.3L44.3,-0L50.1,-0L50.1,-34.1C50.1,-47.8 45,-54.7 33.9,-54.7C26.6,-54.7 21.1,-50.5 15.7,-45.1L15.8,-56.7L15.8,-79.5L10,-79.5L10,-0Z"></path><path transform="translate(739 100)" d="M30.4,1.3C38.1,1.3 43.1,-1.2 47.4,-3.9L45.2,-8.2C41.2,-5.4 36.7,-3.6 31,-3.6C19.5,-3.6 11.8,-12.7 11.5,-25.7L49.3,-25.7C49.5,-27 49.6,-28.4 49.6,-29.9C49.6,-45.5 41.9,-54.7 29,-54.7C16.9,-54.7 5.6,-43.9 5.6,-26.6C5.6,-9.1 16.7,1.3 30.4,1.3ZM11.5,-30.3C12.6,-42.5 20.4,-49.7 29.1,-49.7C38.4,-49.7 44.3,-43.2 44.3,-30.3L11.5,-30.3Z"></path><path transform="translate(793 100)" d=""></path><path transform="translate(815 100)" d="M10.6,-0L16.6,-0L16.6,-30.8L29.9,-30.8C46.1,-30.8 56.1,-37.8 56.1,-52.4C56.1,-67.5 46,-72.9 29.5,-72.9L10.6,-72.9L10.6,-0ZM16.6,-35.8L16.6,-67.9L28.3,-67.9C42.8,-67.9 50,-64.2 50,-52.4C50,-40.7 43.1,-35.8 28.7,-35.8L16.6,-35.8Z"></path><path transform="translate(876 100)" d="M10,-0L15.8,-0L15.8,-35.8C19.7,-45.7 25.4,-49.2 30.1,-49.2C32.2,-49.2 33.2,-49 35,-48.3L36.2,-53.5C34.5,-54.4 32.9,-54.7 30.8,-54.7C24.6,-54.7 19.3,-50.1 15.7,-43.4L15.5,-43.4L14.8,-53.3L10,-53.3L10,-0Z"></path><path transform="translate(911 100)" d="M29.7,1.3C42.6,1.3 53.8,-8.9 53.8,-26.6C53.8,-44.4 42.6,-54.7 29.7,-54.7C16.8,-54.7 5.6,-44.4 5.6,-26.6C5.6,-8.9 16.8,1.3 29.7,1.3ZM29.7,-3.7C19.3,-3.7 11.7,-13 11.7,-26.6C11.7,-40.2 19.3,-49.6 29.7,-49.6C40.1,-49.6 47.8,-40.2 47.8,-26.6C47.8,-13 40.1,-3.7 29.7,-3.7Z"></path><path transform="translate(970 100)" d="M3.3,25.1C12,25.1 15.9,19.6 15.9,9L15.9,-53.3L10,-53.3L10,8.8C10,15.5 8.9,20.2 3,20.2C0.9,20.2 -1.1,19.6 -2.5,19.1L-3.8,23.7C-2.1,24.5 0.6,25.1 3.3,25.1ZM13,-65.8C15.7,-65.8 17.9,-67.7 17.9,-70.4C17.9,-73.4 15.7,-75.2 13,-75.2C10.3,-75.2 8.2,-73.4 8.2,-70.4C8.2,-67.7 10.3,-65.8 13,-65.8Z"></path><path transform="translate(996 100)" d="M30.4,1.3C38.1,1.3 43.1,-1.2 47.4,-3.9L45.2,-8.2C41.2,-5.4 36.7,-3.6 31,-3.6C19.5,-3.6 11.8,-12.7 11.5,-25.7L49.3,-25.7C49.5,-27 49.6,-28.4 49.6,-29.9C49.6,-45.5 41.9,-54.7 29,-54.7C16.9,-54.7 5.6,-43.9 5.6,-26.6C5.6,-9.1 16.7,1.3 30.4,1.3ZM11.5,-30.3C12.6,-42.5 20.4,-49.7 29.1,-49.7C38.4,-49.7 44.3,-43.2 44.3,-30.3L11.5,-30.3Z"></path><path transform="translate(1050 100)" d="M30,1.3C36.7,1.3 42.4,-1.6 47,-5.6L44.2,-9.6C40.6,-6.4 35.8,-3.7 30.3,-3.7C19.1,-3.7 11.7,-13 11.7,-26.6C11.7,-40.2 19.8,-49.6 30.4,-49.6C35.4,-49.6 39.3,-47.3 42.6,-44.2L45.9,-48.2C42.2,-51.5 37.4,-54.7 30.3,-54.7C17.1,-54.7 5.6,-44.4 5.6,-26.6C5.6,-8.9 16.1,1.3 30,1.3Z"></path><path transform="translate(1099 100)" d="M25,1.3C27.4,1.3 30.8,0.4 33.9,-0.7L32.5,-5.2C30.6,-4.4 28,-3.7 26,-3.7C18.9,-3.7 17.1,-8.1 17.1,-14.8L17.1,-48.4L32.4,-48.4L32.4,-53.3L17.1,-53.3L17.1,-68.7L12.2,-68.7L11.5,-53.3L3,-52.8L3,-48.4L11.3,-48.4L11.3,-15.2C11.3,-5.3 14.5,1.3 25,1.3Z"></path><path transform="translate(1134 100)" d=""></path><path transform="translate(1156 100)" d="M10.6,-0L16.6,-0L16.6,-34.6L45.5,-34.6L45.5,-39.7L16.6,-39.7L16.6,-67.8L50.8,-67.8L50.8,-72.9L10.6,-72.9L10.6,-0Z"></path><path transform="translate(1208 100)" d="M29.7,1.3C42.6,1.3 53.8,-8.9 53.8,-26.6C53.8,-44.4 42.6,-54.7 29.7,-54.7C16.8,-54.7 5.6,-44.4 5.6,-26.6C5.6,-8.9 16.8,1.3 29.7,1.3ZM29.7,-3.7C19.3,-3.7 11.7,-13 11.7,-26.6C11.7,-40.2 19.3,-49.6 29.7,-49.6C40.1,-49.6 47.8,-40.2 47.8,-26.6C47.8,-13 40.1,-3.7 29.7,-3.7Z"></path><path transform="translate(1267 100)" d="M10,-0L15.8,-0L15.8,-35.8C19.7,-45.7 25.4,-49.2 30.1,-49.2C32.2,-49.2 33.2,-49 35,-48.3L36.2,-53.5C34.5,-54.4 32.9,-54.7 30.8,-54.7C24.6,-54.7 19.3,-50.1 15.7,-43.4L15.5,-43.4L14.8,-53.3L10,-53.3L10,-0Z"></path><path transform="translate(1303 100)" d=""></path><path transform="translate(1325 100)" d="M19.3,-0L26.1,-0L38.6,-48.7C39.9,-54.5 41.4,-59.5 42.6,-65.1L43,-65.1C44.3,-59.5 45.6,-54.5 46.8,-48.7L59.7,-0L66.5,-0L82.5,-72.9L76.6,-72.9L67.8,-30.7C66.2,-22.8 64.7,-14.9 63.2,-6.9L62.7,-6.9C60.8,-14.9 59,-22.8 57.1,-30.7L45.9,-72.9L40,-72.9L28.9,-30.7C27,-22.8 25.1,-14.9 23.3,-6.9L22.9,-6.9C21.3,-14.9 19.7,-22.8 18,-30.7L9.2,-72.9L3,-72.9L19.3,-0Z"></path><path transform="translate(1411 100)" d="M30.4,1.3C38.1,1.3 43.1,-1.2 47.4,-3.9L45.2,-8.2C41.2,-5.4 36.7,-3.6 31,-3.6C19.5,-3.6 11.8,-12.7 11.5,-25.7L49.3,-25.7C49.5,-27 49.6,-28.4 49.6,-29.9C49.6,-45.5 41.9,-54.7 29,-54.7C16.9,-54.7 5.6,-43.9 5.6,-26.6C5.6,-9.1 16.7,1.3 30.4,1.3ZM11.5,-30.3C12.6,-42.5 20.4,-49.7 29.1,-49.7C38.4,-49.7 44.3,-43.2 44.3,-30.3L11.5,-30.3Z"></path><path transform="translate(1465 100)" d="M31.4,1.3C43.9,1.3 54.9,-9.3 54.9,-27.5C54.9,-43.9 47.7,-54.7 33.5,-54.7C27.1,-54.7 20.8,-51 15.5,-46.5L15.8,-56.7L15.8,-79.5L10,-79.5L10,-0L14.7,-0L15.4,-5.4L15.6,-5.4C20.5,-1.3 26.4,1.3 31.4,1.3ZM30.9,-3.8C27,-3.8 21.3,-5.5 15.8,-10.3L15.8,-41.1C21.8,-46.6 27.3,-49.6 32.4,-49.6C44.3,-49.6 48.7,-40.3 48.7,-27.5C48.7,-13.2 41.3,-3.8 30.9,-3.8Z"></path></svg>