<svg  xmlns="http://www.w3.org/2000/svg" xmlns:xlink="http://www.w3.org/1999/xlink" width="1505" height="100" viewBox="0 0 1529 124"><path transform="translate(0 100)" d="M51.2,-30L51.2,-61.7L86.1,-61.7L86.1,-30L51.2,-30ZM13.4,-30L13.4,-61.7L48.3,-61.7L48.3,-30L13.4,-30ZM51.2,-64.6L51.2,-83L48.3,-83L48.3,-64.6L10.5,-64.6L10.5,-20.2L13.4,-20.2L13.4,-27.1L48.3,-27.1L48.3,6.9L51.2,6.9L51.2,-27.1L86.1,-27.1L86.1,-20.7L89,-20.7L89,-64.6L51.2,-64.6Z"></path><path transform="translate(100 100)" d="M55,-67.7C53.4,-71.8 49.6,-78.4 46.1,-83.2L43.4,-82.3C46.8,-77.4 50.5,-70.7 52.1,-66.6L55,-67.7ZM75,-61.6C69,-45.5 60.7,-32.5 50,-22C38.8,-33 30.2,-46.4 24.2,-61.6L75,-61.6ZM94.7,-61.6L94.7,-64.5L5.6,-64.5L5.6,-61.6L21.1,-61.6C27.2,-45.5 36.2,-31.3 47.7,-20C36.2,-9.5 22,-1.7 4.7,4C5.4,4.6 6.4,6 6.8,6.8C24.1,0.7 38.3,-7.2 50,-17.8C61.9,-6.6 76.4,1.7 93.2,6.5C93.8,5.6 94.7,4.5 95.4,3.9C78.6,-0.6 64.1,-8.9 52.2,-20C63.4,-30.8 72,-44.5 78.5,-61.6L94.7,-61.6Z"></path><path transform="translate(200 100)" d="M48.8,-17C46.4,-22.3 42.5,-29.2 38,-36.2C41.3,-44.6 43.8,-53.8 45.8,-63.8L42.7,-64.3C41.1,-55.4 38.8,-47 36,-39.4C31.6,-45.9 26.9,-52.7 22.4,-58.5L20,-57.3C24.9,-50.9 30.1,-43.4 34.7,-36C30.3,-24.8 24.4,-15.4 16.7,-8.3C17.5,-7.8 18.8,-6.7 19.3,-6.2C26.4,-13.4 32.1,-22.4 36.7,-33C40.6,-26.6 43.9,-20.5 46.2,-15.6L48.8,-17ZM79.6,-13.3C76.9,-19.4 72.6,-27.4 67.6,-35.5C70.8,-43.9 73.3,-53.2 75.1,-63.5L72.3,-64C70.6,-54.9 68.5,-46.3 65.7,-38.6C61.4,-45.3 56.7,-52.3 52.2,-58.3L49.6,-57.2C54.5,-50.5 59.7,-42.8 64.4,-35.1C59.9,-24 54,-14.5 46.2,-7.5C47,-7.1 48.1,-6.1 48.7,-5.6C56.1,-12.7 61.8,-21.6 66.2,-32.1C70.6,-24.7 74.4,-17.6 76.9,-12L79.6,-13.3ZM90.5,-76.5L10,-76.5L10,6.9L12.9,6.9L12.9,-73.6L87.6,-73.6L87.6,1.6C87.6,3.4 86.9,3.9 85.1,4C83.5,4.1 77.7,4.2 70.6,4C71.1,4.9 71.6,6 71.9,6.8C80.5,6.9 85,6.8 87.3,6.3C89.5,5.7 90.5,4.5 90.5,1.5L90.5,-76.5Z"></path><path transform="translate(300 100)" d="M12.3,-68.6L87.8,-68.6L87.8,-53.4L90.7,-53.4L90.7,-71.5L54.1,-71.5C52.8,-75 49.8,-79.9 46.8,-83.7L44.3,-82.6C46.8,-79.2 49.4,-74.9 50.8,-71.5L9.4,-71.5L9.4,-53.4L12.3,-53.4L12.3,-68.6ZM92.2,-28.7L51.5,-28.7L51.5,-34.5C60.1,-38.9 70.6,-46 77.2,-52.8L75,-54.3L74.4,-54.1L23.3,-54.1L23.3,-51.2L71.4,-51.2C65.3,-45.6 56.2,-39.5 48.6,-35.9L48.6,-28.7L7.5,-28.7L7.5,-25.8L48.6,-25.8L48.6,2.4C48.6,3.8 48.1,4.3 46.4,4.4C44.9,4.5 39.5,4.5 32.1,4.4C32.7,5.2 33.2,6.3 33.5,7.1C42,7.1 46.3,7.1 48.5,6.5C50.7,5.9 51.5,4.9 51.5,2.3L51.5,-25.8L92.2,-25.8L92.2,-28.7Z"></path><path transform="translate(400 100)" d="M33.1,-65.3C30,-69.5 23.6,-75.9 18,-80.5L15.9,-78.7C21.4,-74 27.9,-67.2 31.1,-63L33.1,-65.3ZM25.5,-4.4L25.5,-51L5.4,-51L5.4,-48.1L22.6,-48.1L22.6,-6.5C22.6,-2.3 19.7,0.1 18.3,1C19,1.7 20,2.9 20.3,3.6C21.6,2 23.7,0.5 41.1,-11.5C40.8,-12 40.2,-13.2 39.9,-13.9L25.5,-4.4ZM95,-48.2L67.3,-48.2L67.3,-82.9L64.4,-82.9L64.4,-48.2L37.6,-48.2L37.6,-45.3L64.4,-45.3L64.4,7L67.3,7L67.3,-45.3L95,-45.3L95,-48.2Z"></path><path transform="translate(500 100)" d="M49.3,-65.5C46.3,-69.4 39.8,-75.3 34.3,-79.4L32.1,-77.7C37.6,-73.5 44,-67.4 47.2,-63.5L49.3,-65.5ZM60.3,-55.2L59.9,-58L26.1,-54C24.9,-62.9 24.2,-72.6 24.1,-82.8L21.1,-82.8C21.3,-72.7 22.1,-62.9 23.3,-53.7L4.6,-51.5L5,-48.7L23.7,-50.9C25.6,-38.5 28.3,-27.4 31.6,-18.1C24,-9.6 15,-2.6 4.9,2.7C5.7,3.3 6.8,4.5 7.2,5.2C16.7,-0.2 25.3,-7 32.6,-15.1C37.9,-1.4 44.5,7.1 51,7.1C55.9,7.1 57.5,2.5 58.3,-10.5C57.5,-10.7 56.3,-11.3 55.6,-11.9C55,-0.2 53.8,4.2 51.1,4.2C45.9,4.2 39.8,-3.8 34.7,-17.5C41.9,-25.8 47.7,-35.6 52.3,-46.7L49.4,-47.5C45.5,-37.5 40.1,-28.4 33.6,-20.6C30.7,-29.1 28.2,-39.5 26.5,-51.3L60.3,-55.2ZM70.3,-71.7L67.4,-71.7L67.4,-17L70.3,-17L70.3,-71.7ZM86.9,-81.9L86.9,1.6C86.9,3.4 86.1,3.9 84.3,4C82.8,4.1 76.9,4.2 69.7,4C70.2,4.9 70.8,6.1 71,6.9C79.8,6.9 84.1,6.9 86.4,6.3C88.6,5.7 89.8,4.7 89.8,1.5L89.8,-81.9L86.9,-81.9Z"></path><path transform="translate(600 100)" d=""></path><path transform="translate(622 100)" d="M26.7,-0L30.6,-0L30.6,-69.3L54,-69.3L54,-72.6L3.3,-72.6L3.3,-69.3L26.7,-69.3L26.7,-0Z"></path><path transform="translate(679 100)" d="M10.5,-0L14.1,-0L14.1,-40.3C20.8,-47.2 25.6,-50.7 32.1,-50.7C41.1,-50.7 44.8,-45 44.8,-33.4L44.8,-0L48.4,-0L48.4,-33.9C48.4,-47.5 43.3,-54 32.5,-54C25.2,-54 19.7,-49.8 14.1,-44.1L14.1,-79.4L10.5,-79.4L10.5,-0Z"></path><path transform="translate(736 100)" d="M30,1.3C37.8,1.3 42.3,-1.3 46.3,-3.7L44.7,-6.8C40.7,-3.9 36.2,-2 30.2,-2C17.8,-2 9.7,-12.2 9.7,-26.1L48.3,-26.1C48.5,-27.4 48.5,-28.6 48.5,-29.7C48.5,-45.3 40.8,-54 28.6,-54C16.9,-54 5.9,-43.4 5.9,-26.2C5.9,-9 16.7,1.3 30,1.3ZM9.7,-29.4C10.8,-42.7 19.2,-50.7 28.6,-50.7C38.5,-50.7 45,-43.7 45,-29.4L9.7,-29.4Z"></path><path transform="translate(789 100)" d=""></path><path transform="translate(811 100)" d="M11,-0L14.7,-0L14.7,-32L28.9,-32C45.2,-32 54.5,-38.8 54.5,-52.8C54.5,-67.3 45,-72.6 28.5,-72.6L11,-72.6L11,-0ZM14.7,-35.3L14.7,-69.3L27.2,-69.3C42.9,-69.3 50.5,-65.5 50.5,-52.8C50.5,-40.3 43.1,-35.3 27.6,-35.3L14.7,-35.3Z"></path><path transform="translate(871 100)" d="M10.5,-0L14.1,-0L14.1,-36.4C18.2,-46.8 24,-50.5 28.7,-50.5C30.8,-50.5 31.7,-50.3 33.4,-49.6L34.3,-52.9C32.5,-53.8 31,-54 29.2,-54C22.9,-54 17.8,-49.2 14.3,-42.8L14.1,-42.8L13.5,-52.7L10.5,-52.7L10.5,-0Z"></path><path transform="translate(904 100)" d="M29.3,1.3C41.9,1.3 52.7,-8.8 52.7,-26.2C52.7,-43.9 41.9,-54 29.3,-54C16.7,-54 5.9,-43.9 5.9,-26.2C5.9,-8.8 16.7,1.3 29.3,1.3ZM29.3,-2C18.1,-2 9.7,-11.8 9.7,-26.2C9.7,-40.7 18.1,-50.7 29.3,-50.7C40.5,-50.7 49,-40.7 49,-26.2C49,-11.8 40.5,-2 29.3,-2Z"></path><path transform="translate(963 100)" d="M3.1,25.6C10.5,25.6 14.1,21.1 14.1,11L14.1,-52.7L10.5,-52.7L10.5,10.6C10.5,17.4 9.4,22.5 3.3,22.5C1.1,22.5 -1.1,21.8 -2.4,21.4L-3.3,24.3C-1.8,25 0.9,25.6 3.1,25.6ZM12.4,-66C14.4,-66 16.3,-67.5 16.3,-69.8C16.3,-72.3 14.4,-73.7 12.4,-73.7C10.3,-73.7 8.6,-72.3 8.6,-69.8C8.6,-67.5 10.3,-66 12.4,-66Z"></path><path transform="translate(987 100)" d="M30,1.3C37.8,1.3 42.3,-1.3 46.3,-3.7L44.7,-6.8C40.7,-3.9 36.2,-2 30.2,-2C17.8,-2 9.7,-12.2 9.7,-26.1L48.3,-26.1C48.5,-27.4 48.5,-28.6 48.5,-29.7C48.5,-45.3 40.8,-54 28.6,-54C16.9,-54 5.9,-43.4 5.9,-26.2C5.9,-9 16.7,1.3 30,1.3ZM9.7,-29.4C10.8,-42.7 19.2,-50.7 28.6,-50.7C38.5,-50.7 45,-43.7 45,-29.4L9.7,-29.4Z"></path><path transform="translate(1040 100)" d="M29.5,1.3C36.3,1.3 41.9,-1.8 46.3,-5.7L44.2,-8.3C40.5,-4.8 35.4,-2 29.6,-2C17.6,-2 9.7,-11.8 9.7,-26.2C9.7,-40.7 18.5,-50.7 29.6,-50.7C35,-50.7 39.2,-48.1 42.7,-44.8L45,-47.4C41.5,-50.7 36.8,-54 29.6,-54C16.9,-54 5.9,-43.9 5.9,-26.2C5.9,-8.8 16.1,1.3 29.5,1.3Z"></path><path transform="translate(1088 100)" d="M24.1,1.3C25.9,1.3 29.2,0.4 32.3,-0.7L31.1,-3.7C29.2,-2.8 26.4,-2 24.4,-2C16.7,-2 15.2,-6.7 15.2,-13.5L15.2,-49.4L30.8,-49.4L30.8,-52.7L15.2,-52.7L15.2,-68.1L12.1,-68.1L11.7,-52.7L3.3,-52.2L3.3,-49.4L11.7,-49.4L11.7,-14C11.7,-4.8 14.3,1.3 24.1,1.3Z"></path><path transform="translate(1121 100)" d=""></path><path transform="translate(1143 100)" d="M11,-0L14.7,-0L14.7,-35.8L44.3,-35.8L44.3,-39L14.7,-39L14.7,-69.3L49.8,-69.3L49.8,-72.6L11,-72.6L11,-0Z"></path><path transform="translate(1194 100)" d="M29.3,1.3C41.9,1.3 52.7,-8.8 52.7,-26.2C52.7,-43.9 41.9,-54 29.3,-54C16.7,-54 5.9,-43.9 5.9,-26.2C5.9,-8.8 16.7,1.3 29.3,1.3ZM29.3,-2C18.1,-2 9.7,-11.8 9.7,-26.2C9.7,-40.7 18.1,-50.7 29.3,-50.7C40.5,-50.7 49,-40.7 49,-26.2C49,-11.8 40.5,-2 29.3,-2Z"></path><path transform="translate(1253 100)" d="M10.5,-0L14.1,-0L14.1,-36.4C18.2,-46.8 24,-50.5 28.7,-50.5C30.8,-50.5 31.7,-50.3 33.4,-49.6L34.3,-52.9C32.5,-53.8 31,-54 29.2,-54C22.9,-54 17.8,-49.2 14.3,-42.8L14.1,-42.8L13.5,-52.7L10.5,-52.7L10.5,-0Z"></path><path transform="translate(1287 100)" d=""></path><path transform="translate(1309 100)" d="M20.1,-0L24,-0L37.7,-51.8C39,-57.6 40.6,-62.4 41.9,-68.1L42.3,-68.1C43.7,-62.4 45,-57.6 46.3,-51.8L60.2,-0L64.1,-0L80.7,-72.6L77,-72.6L67.3,-28.8C65.7,-20.9 64.1,-13 62.4,-5L61.9,-5C59.9,-13 58,-20.9 56,-28.8L44.2,-72.6L40,-72.6L28.3,-28.8C26.3,-20.9 24.3,-13 22.5,-5L22.1,-5C20.3,-13 18.6,-20.9 16.8,-28.8L7.2,-72.6L3.3,-72.6L20.1,-0Z"></path><path transform="translate(1393 100)" d="M30,1.3C37.8,1.3 42.3,-1.3 46.3,-3.7L44.7,-6.8C40.7,-3.9 36.2,-2 30.2,-2C17.8,-2 9.7,-12.2 9.7,-26.1L48.3,-26.1C48.5,-27.4 48.5,-28.6 48.5,-29.7C48.5,-45.3 40.8,-54 28.6,-54C16.9,-54 5.9,-43.4 5.9,-26.2C5.9,-9 16.7,1.3 30,1.3ZM9.7,-29.4C10.8,-42.7 19.2,-50.7 28.6,-50.7C38.5,-50.7 45,-43.7 45,-29.4L9.7,-29.4Z"></path><path transform="translate(1446 100)" d="M30.2,1.3C42.8,1.3 53.6,-9.2 53.6,-27.1C53.6,-43.4 46.7,-54 32.4,-54C25.8,-54 19.3,-50 13.8,-45.4L14.1,-56L14.1,-79.4L10.5,-79.4L10.5,-0L13.5,-0L14,-5.3L14.3,-5.3C19.2,-1.3 25.2,1.3 30.2,1.3ZM30.5,-2C26.3,-2 20.1,-3.9 14.1,-9.1L14.1,-41.6C20.6,-47.4 26.7,-50.7 32.1,-50.7C45,-50.7 49.8,-40.5 49.8,-27.1C49.8,-12.4 41.7,-2 30.5,-2Z"></path></svg>